<svg xmlns="http://www.w3.org/2000/svg" xmlns:xlink="http://www.w3.org/1999/xlink" xmlns:lucid="lucid" width="1751.87" height="1208.43"><g transform="translate(-59.5 -59.500000000000085)" lucid:page-tab-id="0_0"><path d="M80 88a8 8 0 0 1 8-8h452a8 8 0 0 1 8 8v264c-78.16-45.42-126.83-45.42-156.3-45.42-46.8 0-109.06 45.42-155.86 45.42-29 0-78.15 0-155.84-45.42z" stroke="#333" fill="#fff"/><path d="M106 112a8 8 0 0 1 8-8h452a8 8 0 0 1 8 8v264c-78.16-45.42-126.83-45.42-156.3-45.42-46.8 0-109.06 45.42-155.86 45.42-29 0-78.15 0-155.84-45.42z" stroke="#333" fill="#fff"/><path d="M132 136a8 8 0 0 1 8-8h452a8 8 0 0 1 8 8v264c-78.16-45.42-126.83-45.42-156.3-45.42-46.8 0-109.06 45.42-155.86 45.42-29 0-78.15 0-155.84-45.42z" stroke="#333" fill="#fff"/><use xlink:href="#a" transform="matrix(1,0,0,1,137,133.00000000000009) translate(35.55154320987663 72.72222222222223)"/><use xlink:href="#b" transform="matrix(1,0,0,1,137,133.00000000000009) translate(128.77253086419756 72.72222222222223)"/><use xlink:href="#c" transform="matrix(1,0,0,1,137,133.00000000000009) translate(200.22870370370373 72.72222222222223)"/><use xlink:href="#d" transform="matrix(1,0,0,1,137,133.00000000000009) translate(273.67253086419754 72.72222222222223)"/><use xlink:href="#e" transform="matrix(1,0,0,1,137,133.00000000000009) translate(4.842283950617372 115.65555555555557)"/><use xlink:href="#f" transform="matrix(1,0,0,1,137,133.00000000000009) translate(98.06327160493832 115.65555555555557)"/><use xlink:href="#g" transform="matrix(1,0,0,1,137,133.00000000000009) translate(157.69290123456793 115.65555555555557)"/><use xlink:href="#h" transform="matrix(1,0,0,1,137,133.00000000000009) translate(312.33240740740735 115.65555555555557)"/><use xlink:href="#i" transform="matrix(1,0,0,1,137,133.00000000000009) translate(365.8003086419752 115.65555555555557)"/><use xlink:href="#j" transform="matrix(1,0,0,1,137,133.00000000000009) translate(119.57962962962968 158.58888888888887)"/><use xlink:href="#k" transform="matrix(1,0,0,1,137,133.00000000000009) translate(161.22098765432102 158.58888888888887)"/><use xlink:href="#l" transform="matrix(1,0,0,1,137,133.00000000000009) translate(212.8006172839506 158.58888888888887)"/><path d="M601 240h252.12" stroke="#333" fill="none"/><path d="M601 240.47h-.5v-.94h.5z" stroke="#333" stroke-width=".05" fill="#333"/><path d="M867.88 240l-14.26 4.63v-9.26z" stroke="#333" fill="#333"/><path d="M870 88a8 8 0 0 1 8-8h404a8 8 0 0 1 8 8v304a8 8 0 0 1-8 8H878a8 8 0 0 1-8-8z" stroke="#333" fill="#fff"/><use xlink:href="#m" transform="matrix(1,0,0,1,875,85.00000000000009) translate(10.014197530864294 119.22222222222223)"/><use xlink:href="#n" transform="matrix(1,0,0,1,875,85.00000000000009) translate(202.5185185185185 119.22222222222223)"/><use xlink:href="#o" transform="matrix(1,0,0,1,875,85.00000000000009) translate(273.97469135802464 119.22222222222223)"/><use xlink:href="#p" transform="matrix(1,0,0,1,875,85.00000000000009) translate(37.29475308641986 162.15555555555557)"/><use xlink:href="#q" transform="matrix(1,0,0,1,875,85.00000000000009) translate(88.87438271604947 162.15555555555557)"/><use xlink:href="#r" transform="matrix(1,0,0,1,875,85.00000000000009) translate(128.62746913580253 162.15555555555557)"/><use xlink:href="#s" transform="matrix(1,0,0,1,875,85.00000000000009) translate(219.9601851851852 162.15555555555557)"/><use xlink:href="#t" transform="matrix(1,0,0,1,875,85.00000000000009) translate(8.125925925926026 205.08888888888887)"/><use xlink:href="#u" transform="matrix(1,0,0,1,875,85.00000000000009) translate(113.17345679012351 205.08888888888887)"/><use xlink:href="#v" transform="matrix(1,0,0,1,875,85.00000000000009) translate(172.80308641975313 205.08888888888887)"/><use xlink:href="#w" transform="matrix(1,0,0,1,875,85.00000000000009) translate(246.24691358024694 205.08888888888887)"/><path d="M80 848a8 8 0 0 1 8-8h504a8 8 0 0 1 8 8v391.43a8 8 0 0 1-8 8H88a8 8 0 0 1-8-8z" stroke="#333" fill="#fff"/><use xlink:href="#x" transform="matrix(1,0,0,1,85,845) translate(5.946913580247013 120.28888888888892)"/><use xlink:href="#y" transform="matrix(1,0,0,1,85,845) translate(216.24074074074073 120.28888888888892)"/><use xlink:href="#z" transform="matrix(1,0,0,1,85,845) translate(275.8703703703703 120.28888888888892)"/><use xlink:href="#A" transform="matrix(1,0,0,1,85,845) translate(462.4117283950617 120.28888888888892)"/><use xlink:href="#B" transform="matrix(1,0,0,1,85,845) translate(17.823148148148277 163.22222222222223)"/><use xlink:href="#C" transform="matrix(1,0,0,1,85,845) translate(154.7725308641976 163.22222222222223)"/><use xlink:href="#D" transform="matrix(1,0,0,1,85,845) translate(279.6966049382716 163.22222222222223)"/><use xlink:href="#E" transform="matrix(1,0,0,1,85,845) translate(369.141049382716 163.22222222222223)"/><use xlink:href="#F" transform="matrix(1,0,0,1,85,845) translate(462.36203703703694 163.22222222222223)"/><use xlink:href="#r" transform="matrix(1,0,0,1,85,845) translate(22.394753086419882 206.15555555555557)"/><use xlink:href="#G" transform="matrix(1,0,0,1,85,845) translate(113.72746913580255 206.15555555555557)"/><use xlink:href="#H" transform="matrix(1,0,0,1,85,845) translate(277.4108024691358 206.15555555555557)"/><use xlink:href="#I" transform="matrix(1,0,0,1,85,845) translate(330.87870370370365 206.15555555555557)"/><use xlink:href="#J" transform="matrix(1,0,0,1,85,845) translate(382.45833333333326 206.15555555555557)"/><use xlink:href="#K" transform="matrix(1,0,0,1,85,845) translate(71.5395061728396 249.08888888888885)"/><use xlink:href="#L" transform="matrix(1,0,0,1,85,845) translate(144.883950617284 249.08888888888885)"/><use xlink:href="#M" transform="matrix(1,0,0,1,85,845) translate(216.34012345679014 249.08888888888885)"/><use xlink:href="#N" transform="matrix(1,0,0,1,85,845) translate(386.8808641975308 249.08888888888885)"/><use xlink:href="#O" transform="matrix(1,0,0,1,85,845) translate(90.22345679012352 292.0222222222222)"/><use xlink:href="#P" transform="matrix(1,0,0,1,85,845) translate(251.12407407407406 292.0222222222222)"/><use xlink:href="#Q" transform="matrix(1,0,0,1,85,845) translate(302.7037037037037 292.0222222222222)"/><path d="M601 1043.7h467a12 12 0 0 0 12-12V913.3" stroke="#333" fill="none"/><path d="M601 1044.2h-.5v-.96h.5z" stroke="#333" stroke-width=".05" fill="#333"/><path d="M1080 898.52l4.63 14.26h-9.27z" stroke="#333" fill="#333"/><path d="M800 508a8 8 0 0 1 8-8h544a8 8 0 0 1 8 8v380.4a8 8 0 0 1-8 8H808a8 8 0 0 1-8-8z" stroke="#333" fill="#fff"/><g><use xlink:href="#m" transform="matrix(1,0,0,1,805.0000000406869,505) translate(17.55216049382733 114.78888888888892)"/><use xlink:href="#n" transform="matrix(1,0,0,1,805.0000000406869,505) translate(210.05648148148154 114.78888888888892)"/><use xlink:href="#B" transform="matrix(1,0,0,1,805.0000000406869,505) translate(281.5126543209877 114.78888888888892)"/><use xlink:href="#R" transform="matrix(1,0,0,1,805.0000000406869,505) translate(418.46203703703696 114.78888888888892)"/><use xlink:href="#D" transform="matrix(1,0,0,1,805.0000000406869,505) translate(53.28024691358033 157.72222222222223)"/><use xlink:href="#H" transform="matrix(1,0,0,1,805.0000000406869,505) translate(142.72469135802473 157.72222222222223)"/><use xlink:href="#I" transform="matrix(1,0,0,1,805.0000000406869,505) translate(196.1925925925926 157.72222222222223)"/><use xlink:href="#S" transform="matrix(1,0,0,1,805.0000000406869,505) translate(247.7722222222222 157.72222222222223)"/><use xlink:href="#K" transform="matrix(1,0,0,1,805.0000000406869,505) translate(362.8574074074073 157.72222222222223)"/><use xlink:href="#T" transform="matrix(1,0,0,1,805.0000000406869,505) translate(436.20185185185176 157.72222222222223)"/><use xlink:href="#M" transform="matrix(1,0,0,1,805.0000000406869,505) translate(58.19969135802481 200.65555555555557)"/><use xlink:href="#U" transform="matrix(1,0,0,1,805.0000000406869,505) translate(228.74043209876547 200.65555555555557)"/><use xlink:href="#O" transform="matrix(1,0,0,1,805.0000000406869,505) translate(290.2583333333333 200.65555555555557)"/><use xlink:href="#V" transform="matrix(1,0,0,1,805.0000000406869,505) translate(451.15895061728384 200.65555555555557)"/><use xlink:href="#W" transform="matrix(1,0,0,1,805.0000000406869,505) translate(10.29722222222233 243.58888888888885)"/><use xlink:href="#X" transform="matrix(1,0,0,1,805.0000000406869,505) translate(137.3083333333334 243.58888888888885)"/><use xlink:href="#Y" transform="matrix(1,0,0,1,805.0000000406869,505) translate(167.12314814814818 243.58888888888885)"/><use xlink:href="#L" transform="matrix(1,0,0,1,805.0000000406869,505) translate(266.90339506172836 243.58888888888885)"/><use xlink:href="#Z" transform="matrix(1,0,0,1,805.0000000406869,505) translate(338.3595679012345 243.58888888888885)"/><use xlink:href="#A" transform="matrix(1,0,0,1,805.0000000406869,505) translate(499.0614197530863 243.58888888888885)"/><use xlink:href="#aa" transform="matrix(1,0,0,1,805.0000000406869,505) translate(197.13672839506177 286.5222222222222)"/></g><path d="M1361 698.2h17a12 12 0 0 1 12 12V1078a12 12 0 0 0 12 12h1.12" stroke="#333" fill="none"/><path d="M1361 698.67h-.5v-.94h.5z" stroke="#333" stroke-width=".05" fill="#333"/><path d="M1417.88 1090l-14.26 4.63v-9.27z" stroke="#333" fill="#333"/><path d="M1420 988a8 8 0 0 1 8-8h317.78a8 8 0 0 1 8 8v179c-55.74-31.23-90.45-31.23-111.48-31.23-33.38 0-77.77 31.23-111.15 31.23-20.7 0-55.74 0-111.15-31.23z" stroke="#333" fill="#fff"/><path d="M1438.54 1004.5a8 8 0 0 1 8-8h317.78a8 8 0 0 1 8 8v179c-55.74-31.23-90.45-31.23-111.48-31.23-33.38 0-77.77 31.23-111.15 31.23-20.7 0-55.75 0-111.16-31.23z" stroke="#333" fill="#fff"/><path d="M1457.1 1021a8 8 0 0 1 8-8h317.77a8 8 0 0 1 8 8v179c-55.74-31.23-90.46-31.23-111.5-31.23-33.36 0-77.76 31.23-111.13 31.23-20.7 0-55.75 0-111.15-31.23z" stroke="#333" fill="#fff"/><g><use xlink:href="#ab" transform="matrix(1,0,0,1,1462.0866141732283,1018) translate(16.155864197530946 58.68888888888889)"/><use xlink:href="#n" transform="matrix(1,0,0,1,1462.0866141732283,1018) translate(109.3768518518519 58.68888888888889)"/><use xlink:href="#o" transform="matrix(1,0,0,1,1462.0866141732283,1018) translate(180.83302469135805 58.68888888888889)"/><use xlink:href="#ac" transform="matrix(1,0,0,1,1462.0866141732283,1018) translate(114.3956790123457 101.6222222222222)"/></g><path d="M1361 698.2h17a12 12 0 0 0 12-12V342a12 12 0 0 1 12-12h1.12" stroke="#333" fill="none"/><path d="M1361 698.67h-.5v-.94h.5z" stroke="#333" stroke-width=".05" fill="#333"/><path d="M1417.88 330l-14.26 4.63v-9.26z" stroke="#333" fill="#333"/><path d="M1420 208a8 8 0 0 1 8-8h317.78a8 8 0 0 1 8 8v213c-55.74-36.9-90.45-36.9-111.48-36.9-33.38 0-77.77 36.9-111.15 36.9-20.7 0-55.74 0-111.15-36.9z" stroke="#333" fill="#fff"/><path d="M1438.54 227.5a8 8 0 0 1 8-8h317.78a8 8 0 0 1 8 8v213c-55.74-36.9-90.45-36.9-111.48-36.9-33.38 0-77.77 36.9-111.15 36.9-20.7 0-55.75 0-111.16-36.9z" stroke="#333" fill="#fff"/><path d="M1457.1 247a8 8 0 0 1 8-8h317.77a8 8 0 0 1 8 8v213c-55.74-36.9-90.46-36.9-111.5-36.9-33.36 0-77.76 36.9-111.13 36.9-20.7 0-55.75 0-111.15-36.9z" stroke="#333" fill="#fff"/><g><use xlink:href="#ab" transform="matrix(1,0,0,1,1462.0866141732283,244) translate(84.63055555555559 30.25555555555558)"/><use xlink:href="#ad" transform="matrix(1,0,0,1,1462.0866141732283,244) translate(177.85154320987652 30.25555555555558)"/><use xlink:href="#ae" transform="matrix(1,0,0,1,1462.0866141732283,244) translate(72.80401234567906 73.1888888888889)"/><use xlink:href="#af" transform="matrix(1,0,0,1,1462.0866141732283,244) translate(57.797222222222274 116.12222222222223)"/><use xlink:href="#T" transform="matrix(1,0,0,1,1462.0866141732283,244) translate(204.68487654320987 116.12222222222223)"/><use xlink:href="#B" transform="matrix(1,0,0,1,1462.0866141732283,244) translate(45.92098765432104 159.05555555555554)"/><use xlink:href="#ac" transform="matrix(1,0,0,1,1462.0866141732283,244) translate(182.87037037037035 159.05555555555554)"/></g><path d="M1080 401v82.12" stroke="#333" fill="none"/><path d="M1080.47 401h-.94v-.5h.94z" stroke="#333" stroke-width=".05" fill="#333"/><path d="M1080 497.88l-4.63-14.26h9.27z" stroke="#333" fill="#333"/><defs><path fill="#333" d="M24 0v-248h52v208h133V0H24" id="ag"/><path fill="#333" d="M25-224v-37h50v37H25zM25 0v-190h50V0H25" id="ah"/><path fill="#333" d="M137-138c1-29-70-34-71-4 15 46 118 7 119 86 1 83-164 76-172 9l43-7c4 19 20 25 44 25 33 8 57-30 24-41C81-84 22-81 20-136c-2-80 154-74 161-7" id="ai"/><path fill="#333" d="M115-3C79 11 28 4 28-45v-112H4v-33h27l15-45h31v45h36v33H77v99c-1 23 16 31 38 25v30" id="aj"/><path fill="#333" d="M185-48c-13 30-37 53-82 52C43 2 14-33 14-96s30-98 90-98c62 0 83 45 84 108H66c0 31 8 55 39 56 18 0 30-7 34-22zm-45-69c5-46-57-63-70-21-2 6-4 13-4 21h74" id="ak"/><g id="a"><use transform="matrix(0.09938271604938267,0,0,0.09938271604938267,0,0)" xlink:href="#ag"/><use transform="matrix(0.09938271604938267,0,0,0.09938271604938267,21.764814814814805,0)" xlink:href="#ah"/><use transform="matrix(0.09938271604938267,0,0,0.09938271604938267,31.703086419753074,0)" xlink:href="#ai"/><use transform="matrix(0.09938271604938267,0,0,0.09938271604938267,51.57962962962961,0)" xlink:href="#aj"/><use transform="matrix(0.09938271604938267,0,0,0.09938271604938267,63.40617283950615,0)" xlink:href="#ak"/></g><path fill="#333" d="M88-194c31-1 46 15 58 34l-1-101h50l1 261h-48c-2-10 0-23-3-31C134-8 116 4 84 4 32 4 16-41 15-95c0-56 19-97 73-99zm17 164c33 0 40-30 41-66 1-37-9-64-41-64s-38 30-39 65c0 43 13 65 39 65" id="al"/><g id="b"><use transform="matrix(0.09938271604938267,0,0,0.09938271604938267,0,0)" xlink:href="#al"/><use transform="matrix(0.09938271604938267,0,0,0.09938271604938267,21.764814814814805,0)" xlink:href="#ak"/><use transform="matrix(0.09938271604938267,0,0,0.09938271604938267,41.64135802469134,0)" xlink:href="#ai"/></g><path fill="#333" d="M24-248c120-7 223 5 221 122C244-46 201 0 124 0H24v-248zM76-40c74 7 117-18 117-86 0-67-45-88-117-82v168" id="am"/><path fill="#333" d="M140-251c80 0 125 45 125 126S219 4 139 4C58 4 15-44 15-125s44-126 125-126zm-1 214c52 0 73-35 73-88 0-50-21-86-72-86-52 0-73 35-73 86s22 88 72 88" id="an"/><path fill="#333" d="M24 0v-248h52V0H24" id="ao"/><g id="c"><use transform="matrix(0.09938271604938267,0,0,0.09938271604938267,0,0)" xlink:href="#am"/><use transform="matrix(0.09938271604938267,0,0,0.09938271604938267,25.740123456790112,0)" xlink:href="#an"/><use transform="matrix(0.09938271604938267,0,0,0.09938271604938267,53.56728395061726,0)" xlink:href="#ao"/></g><path fill="#333" d="M135-194c53 0 70 44 70 98 0 56-19 98-73 100-31 1-45-17-59-34 3 33 2 69 2 105H25l-1-265h48c2 10 0 23 3 31 11-24 29-35 60-35zM114-30c33 0 39-31 40-66 0-38-9-64-40-64-56 0-55 130 0 130" id="ap"/><path fill="#333" d="M135-150c-39-12-60 13-60 57V0H25l-1-190h47c2 13-1 29 3 40 6-28 27-53 61-41v41" id="aq"/><path fill="#333" d="M185-48c-13 30-37 53-82 52C43 2 14-33 14-96s30-98 90-98c62 0 83 45 84 108H66c0 31 8 55 39 56 18 0 30-7 34-22zm-45-69c5-46-57-63-70-21-2 6-4 13-4 21h74zm-67-91v-5l45-51h45v8l-60 48H73" id="ar"/><path fill="#333" d="M135-194c87-1 58 113 63 194h-50c-7-57 23-157-34-157-59 0-34 97-39 157H25l-1-190h47c2 12-1 28 3 38 12-26 28-41 61-42" id="as"/><g id="d"><use transform="matrix(0.09938271604938267,0,0,0.09938271604938267,0,0)" xlink:href="#ap"/><use transform="matrix(0.09938271604938267,0,0,0.09938271604938267,21.764814814814805,0)" xlink:href="#aq"/><use transform="matrix(0.09938271604938267,0,0,0.09938271604938267,35.67839506172838,0)" xlink:href="#ar"/><use transform="matrix(0.09938271604938267,0,0,0.09938271604938267,55.55493827160492,0)" xlink:href="#ai"/><use transform="matrix(0.09938271604938267,0,0,0.09938271604938267,75.43148148148144,0)" xlink:href="#ak"/><use transform="matrix(0.09938271604938267,0,0,0.09938271604938267,95.30802469135797,0)" xlink:href="#as"/><use transform="matrix(0.09938271604938267,0,0,0.09938271604938267,117.07283950617278,0)" xlink:href="#aj"/><use transform="matrix(0.09938271604938267,0,0,0.09938271604938267,128.89938271604933,0)" xlink:href="#ai"/></g><path fill="#333" d="M133-34C117-15 103 5 69 4 32 3 11-16 11-54c-1-60 55-63 116-61 1-26-3-47-28-47-18 1-26 9-28 27l-52-2c7-38 36-58 82-57s74 22 75 68l1 82c-1 14 12 18 25 15v27c-30 8-71 5-69-32zm-48 3c29 0 43-24 42-57-32 0-66-3-65 30 0 17 8 27 23 27" id="at"/><g id="e"><use transform="matrix(0.09938271604938267,0,0,0.09938271604938267,0,0)" xlink:href="#al"/><use transform="matrix(0.09938271604938267,0,0,0.09938271604938267,21.764814814814805,0)" xlink:href="#at"/><use transform="matrix(0.09938271604938267,0,0,0.09938271604938267,41.64135802469134,0)" xlink:href="#as"/><use transform="matrix(0.09938271604938267,0,0,0.09938271604938267,63.40617283950615,0)" xlink:href="#ai"/></g><path fill="#333" d="M25 0v-261h50V0H25" id="au"/><g id="f"><use transform="matrix(0.09938271604938267,0,0,0.09938271604938267,0,0)" xlink:href="#au"/><use transform="matrix(0.09938271604938267,0,0,0.09938271604938267,9.938271604938267,0)" xlink:href="#ak"/><use transform="matrix(0.09938271604938267,0,0,0.09938271604938267,29.814814814814802,0)" xlink:href="#ai"/></g><path fill="#333" d="M110-194c64 0 96 36 96 99 0 64-35 99-97 99-61 0-95-36-95-99 0-62 34-99 96-99zm-1 164c35 0 45-28 45-65 0-40-10-65-43-65-34 0-45 26-45 65 0 36 10 65 43 65" id="av"/><g id="g"><use transform="matrix(0.09938271604938267,0,0,0.09938271604938267,0,0)" xlink:href="#aq"/><use transform="matrix(0.09938271604938267,0,0,0.09938271604938267,13.913580246913574,0)" xlink:href="#at"/><use transform="matrix(0.09938271604938267,0,0,0.09938271604938267,33.790123456790106,0)" xlink:href="#ap"/><use transform="matrix(0.09938271604938267,0,0,0.09938271604938267,55.55493827160492,0)" xlink:href="#ap"/><use transform="matrix(0.09938271604938267,0,0,0.09938271604938267,77.31975308641972,0)" xlink:href="#av"/><use transform="matrix(0.09938271604938267,0,0,0.09938271604938267,99.08456790123452,0)" xlink:href="#aq"/><use transform="matrix(0.09938271604938267,0,0,0.09938271604938267,112.9981481481481,0)" xlink:href="#aj"/><use transform="matrix(0.09938271604938267,0,0,0.09938271604938267,124.82469135802462,0)" xlink:href="#ai"/></g><path fill="#333" d="M85 4C-2 5 27-109 22-190h50c7 57-23 150 33 157 60-5 35-97 40-157h50l1 190h-47c-2-12 1-28-3-38-12 25-28 42-61 42" id="aw"/><g id="h"><use transform="matrix(0.09938271604938267,0,0,0.09938271604938267,0,0)" xlink:href="#al"/><use transform="matrix(0.09938271604938267,0,0,0.09938271604938267,21.764814814814805,0)" xlink:href="#aw"/></g><path fill="#333" d="M67-125c0 54 23 88 75 88 28 0 53-7 68-21v-34h-60v-39h108v91C232-14 192 4 140 4 58 4 20-42 15-125 8-236 126-280 215-234c19 10 29 26 37 47l-47 15c-11-23-29-39-63-39-53 1-75 33-75 86" id="ax"/><path fill="#333" d="M24 0v-248h195v40H76v63h132v40H76v65h150V0H24" id="ay"/><path fill="#333" d="M67-125c0 53 21 87 73 88 37 1 54-22 65-47l45 17C233-25 199 4 140 4 58 4 20-42 15-125 8-235 124-281 211-232c18 10 29 29 36 50l-46 12c-8-25-30-41-62-41-52 0-71 34-72 86" id="az"/><g id="i"><use transform="matrix(0.09938271604938267,0,0,0.09938271604938267,0,0)" xlink:href="#ax"/><use transform="matrix(0.09938271604938267,0,0,0.09938271604938267,27.827160493827147,0)" xlink:href="#ao"/><use transform="matrix(0.09938271604938267,0,0,0.09938271604938267,37.765432098765416,0)" xlink:href="#ay"/><use transform="matrix(0.09938271604938267,0,0,0.09938271604938267,61.61728395061726,0)" xlink:href="#az"/></g><g id="j"><use transform="matrix(0.09938271604938267,0,0,0.09938271604938267,0,0)" xlink:href="#ak"/><use transform="matrix(0.09938271604938267,0,0,0.09938271604938267,19.876543209876534,0)" xlink:href="#aj"/></g><g id="k"><use transform="matrix(0.09938271604938267,0,0,0.09938271604938267,0,0)" xlink:href="#al"/><use transform="matrix(0.09938271604938267,0,0,0.09938271604938267,21.764814814814805,0)" xlink:href="#ak"/></g><path fill="#333" d="M62-158H24l-5-90h48" id="aA"/><path fill="#333" d="M24-248c93 1 206-16 204 79-1 75-69 88-152 82V0H24v-248zm52 121c47 0 100 7 100-41 0-47-54-39-100-39v80" id="aB"/><path fill="#333" d="M182-130c37 4 62 22 62 59C244 23 116-4 24 0v-248c84 5 203-23 205 63 0 31-19 50-47 55zM76-148c40-3 101 13 101-30 0-44-60-28-101-31v61zm0 110c48-3 116 14 116-37 0-48-69-32-116-35v72" id="aC"/><path fill="#333" d="M169-182c-1-43-94-46-97-3 18 66 151 10 154 114 3 95-165 93-204 36-6-8-10-19-12-30l50-8c3 46 112 56 116 5-17-69-150-10-154-114-4-87 153-88 188-35 5 8 8 18 10 28" id="aD"/><g id="l"><use transform="matrix(0.09938271604938267,0,0,0.09938271604938267,0,0)" xlink:href="#au"/><use transform="matrix(0.09938271604938267,0,0,0.09938271604938267,9.938271604938267,0)" xlink:href="#aA"/><use transform="matrix(0.09938271604938267,0,0,0.09938271604938267,18.385802469135797,0)" xlink:href="#ao"/><use transform="matrix(0.09938271604938267,0,0,0.09938271604938267,28.324074074074062,0)" xlink:href="#aB"/><use transform="matrix(0.09938271604938267,0,0,0.09938271604938267,52.1759259259259,0)" xlink:href="#aC"/><use transform="matrix(0.09938271604938267,0,0,0.09938271604938267,77.91604938271601,0)" xlink:href="#ay"/><use transform="matrix(0.09938271604938267,0,0,0.09938271604938267,101.76790123456786,0)" xlink:href="#aD"/></g><path fill="#333" d="M240-174c0 40-23 61-54 70L253 0h-59l-57-94H76V0H24v-248c93 4 217-23 216 74zM76-134c48-2 112 12 112-38 0-48-66-32-112-35v73" id="aE"/><path fill="#333" d="M190-63c-7 42-38 67-86 67-59 0-84-38-90-98-12-110 154-137 174-36l-49 2c-2-19-15-32-35-32-30 0-35 28-38 64-6 74 65 87 74 30" id="aF"/><path fill="#333" d="M114-157C55-157 80-60 75 0H25v-261h50l-1 109c12-26 28-41 61-42 86-1 58 113 63 194h-50c-7-57 23-157-34-157" id="aG"/><g id="m"><use transform="matrix(0.09938271604938267,0,0,0.09938271604938267,0,0)" xlink:href="#aE"/><use transform="matrix(0.09938271604938267,0,0,0.09938271604938267,25.740123456790112,0)" xlink:href="#ak"/><use transform="matrix(0.09938271604938267,0,0,0.09938271604938267,45.616666666666646,0)" xlink:href="#aF"/><use transform="matrix(0.09938271604938267,0,0,0.09938271604938267,65.49320987654318,0)" xlink:href="#aG"/><use transform="matrix(0.09938271604938267,0,0,0.09938271604938267,87.25802469135797,0)" xlink:href="#ak"/><use transform="matrix(0.09938271604938267,0,0,0.09938271604938267,107.1345679012345,0)" xlink:href="#aq"/><use transform="matrix(0.09938271604938267,0,0,0.09938271604938267,121.04814814814807,0)" xlink:href="#aF"/><use transform="matrix(0.09938271604938267,0,0,0.09938271604938267,140.9246913580246,0)" xlink:href="#aG"/><use transform="matrix(0.09938271604938267,0,0,0.09938271604938267,162.6895061728394,0)" xlink:href="#ak"/></g><g id="n"><use transform="matrix(0.09938271604938267,0,0,0.09938271604938267,0,0)" xlink:href="#al"/><use transform="matrix(0.09938271604938267,0,0,0.09938271604938267,21.764814814814805,0)" xlink:href="#ak"/><use transform="matrix(0.09938271604938267,0,0,0.09938271604938267,41.64135802469134,0)" xlink:href="#ai"/></g><path fill="#333" d="M135-194c52 0 70 43 70 98 0 56-19 99-73 100-30 1-46-15-58-35L72 0H24l1-261h50v104c11-23 29-37 60-37zM114-30c31 0 40-27 40-66 0-37-7-63-39-63s-41 28-41 65c0 36 8 64 40 64" id="aH"/><path fill="#333" d="M128 0H69L1-190h53L99-40l48-150h52" id="aI"/><g id="o"><use transform="matrix(0.09938271604938267,0,0,0.09938271604938267,0,0)" xlink:href="#aH"/><use transform="matrix(0.09938271604938267,0,0,0.09938271604938267,21.764814814814805,0)" xlink:href="#aq"/><use transform="matrix(0.09938271604938267,0,0,0.09938271604938267,35.67839506172838,0)" xlink:href="#ak"/><use transform="matrix(0.09938271604938267,0,0,0.09938271604938267,55.55493827160492,0)" xlink:href="#aI"/><use transform="matrix(0.09938271604938267,0,0,0.09938271604938267,75.43148148148144,0)" xlink:href="#ak"/><use transform="matrix(0.09938271604938267,0,0,0.09938271604938267,95.30802469135797,0)" xlink:href="#aj"/><use transform="matrix(0.09938271604938267,0,0,0.09938271604938267,107.1345679012345,0)" xlink:href="#ai"/></g><g id="p"><use transform="matrix(0.09938271604938267,0,0,0.09938271604938267,0,0)" xlink:href="#al"/><use transform="matrix(0.09938271604938267,0,0,0.09938271604938267,21.764814814814805,0)" xlink:href="#ak"/></g><g id="q"><use transform="matrix(0.09938271604938267,0,0,0.09938271604938267,0,0)" xlink:href="#au"/><use transform="matrix(0.09938271604938267,0,0,0.09938271604938267,9.938271604938267,0)" xlink:href="#at"/></g><g id="r"><use transform="matrix(0.09938271604938267,0,0,0.09938271604938267,0,0)" xlink:href="#aH"/><use transform="matrix(0.09938271604938267,0,0,0.09938271604938267,21.764814814814805,0)" xlink:href="#at"/><use transform="matrix(0.09938271604938267,0,0,0.09938271604938267,41.64135802469134,0)" xlink:href="#ai"/><use transform="matrix(0.09938271604938267,0,0,0.09938271604938267,61.51790123456787,0)" xlink:href="#ak"/></g><path fill="#333" d="M199 0l-22-63H83L61 0H9l90-248h61L250 0h-51zm-33-102l-36-108c-10 38-24 72-36 108h72" id="aJ"/><path fill="#333" d="M136-208V0H84v-208H4v-40h212v40h-80" id="aK"/><g id="s"><use transform="matrix(0.09938271604938267,0,0,0.09938271604938267,0,0)" xlink:href="#aB"/><use transform="matrix(0.09938271604938267,0,0,0.09938271604938267,21.168518518518507,0)" xlink:href="#aJ"/><use transform="matrix(0.09938271604938267,0,0,0.09938271604938267,44.22530864197529,0)" xlink:href="#aK"/><use transform="matrix(0.09938271604938267,0,0,0.09938271604938267,65.99012345679009,0)" xlink:href="#aD"/><use transform="matrix(0.09938271604938267,0,0,0.09938271604938267,89.84197530864193,0)" xlink:href="#aK"/><use transform="matrix(0.09938271604938267,0,0,0.09938271604938267,108.92345679012338,0)" xlink:href="#aJ"/><use transform="matrix(0.09938271604938267,0,0,0.09938271604938267,131.98024691358017,0)" xlink:href="#aK"/></g><g id="t"><use transform="matrix(0.09938271604938267,0,0,0.09938271604938267,0,0)" xlink:href="#aF"/><use transform="matrix(0.09938271604938267,0,0,0.09938271604938267,19.876543209876534,0)" xlink:href="#ah"/><use transform="matrix(0.09938271604938267,0,0,0.09938271604938267,29.814814814814802,0)" xlink:href="#aj"/><use transform="matrix(0.09938271604938267,0,0,0.09938271604938267,41.64135802469134,0)" xlink:href="#at"/><use transform="matrix(0.09938271604938267,0,0,0.09938271604938267,61.51790123456787,0)" xlink:href="#as"/><use transform="matrix(0.09938271604938267,0,0,0.09938271604938267,83.28271604938269,0)" xlink:href="#aj"/></g><g id="u"><use transform="matrix(0.09938271604938267,0,0,0.09938271604938267,0,0)" xlink:href="#au"/><use transform="matrix(0.09938271604938267,0,0,0.09938271604938267,9.938271604938267,0)" xlink:href="#ak"/><use transform="matrix(0.09938271604938267,0,0,0.09938271604938267,29.814814814814802,0)" xlink:href="#ai"/></g><g id="v"><use transform="matrix(0.09938271604938267,0,0,0.09938271604938267,0,0)" xlink:href="#am"/><use transform="matrix(0.09938271604938267,0,0,0.09938271604938267,25.740123456790112,0)" xlink:href="#an"/><use transform="matrix(0.09938271604938267,0,0,0.09938271604938267,53.56728395061726,0)" xlink:href="#ao"/></g><path fill="#333" d="M121-226c-27-7-43 5-38 36h38v33H83V0H34v-157H6v-33h28c-9-59 32-81 87-68v32" id="aL"/><g id="w"><use transform="matrix(0.09938271604938267,0,0,0.09938271604938267,0,0)" xlink:href="#ah"/><use transform="matrix(0.09938271604938267,0,0,0.09938271604938267,9.938271604938267,0)" xlink:href="#al"/><use transform="matrix(0.09938271604938267,0,0,0.09938271604938267,31.703086419753074,0)" xlink:href="#ak"/><use transform="matrix(0.09938271604938267,0,0,0.09938271604938267,51.57962962962961,0)" xlink:href="#as"/><use transform="matrix(0.09938271604938267,0,0,0.09938271604938267,73.3444444444444,0)" xlink:href="#aj"/><use transform="matrix(0.09938271604938267,0,0,0.09938271604938267,85.17098765432094,0)" xlink:href="#ah"/><use transform="matrix(0.09938271604938267,0,0,0.09938271604938267,95.1092592592592,0)" xlink:href="#aL"/><use transform="matrix(0.09938271604938267,0,0,0.09938271604938267,106.93580246913574,0)" xlink:href="#ah"/><use transform="matrix(0.09938271604938267,0,0,0.09938271604938267,116.874074074074,0)" xlink:href="#ar"/><use transform="matrix(0.09938271604938267,0,0,0.09938271604938267,136.75061728395053,0)" xlink:href="#ai"/></g><g id="x"><use transform="matrix(0.09938271604938267,0,0,0.09938271604938267,0,0)" xlink:href="#aD"/><use transform="matrix(0.09938271604938267,0,0,0.09938271604938267,23.85185185185184,0)" xlink:href="#ar"/><use transform="matrix(0.09938271604938267,0,0,0.09938271604938267,43.72839506172838,0)" xlink:href="#au"/><use transform="matrix(0.09938271604938267,0,0,0.09938271604938267,53.66666666666664,0)" xlink:href="#ak"/><use transform="matrix(0.09938271604938267,0,0,0.09938271604938267,73.54320987654317,0)" xlink:href="#aF"/><use transform="matrix(0.09938271604938267,0,0,0.09938271604938267,93.4197530864197,0)" xlink:href="#aj"/><use transform="matrix(0.09938271604938267,0,0,0.09938271604938267,105.24629629629624,0)" xlink:href="#ah"/><use transform="matrix(0.09938271604938267,0,0,0.09938271604938267,115.1845679012345,0)" xlink:href="#av"/><use transform="matrix(0.09938271604938267,0,0,0.09938271604938267,136.9493827160493,0)" xlink:href="#as"/><use transform="matrix(0.09938271604938267,0,0,0.09938271604938267,158.7141975308641,0)" xlink:href="#as"/><use transform="matrix(0.09938271604938267,0,0,0.09938271604938267,180.4790123456789,0)" xlink:href="#ak"/></g><g id="y"><use transform="matrix(0.09938271604938267,0,0,0.09938271604938267,0,0)" xlink:href="#au"/><use transform="matrix(0.09938271604938267,0,0,0.09938271604938267,9.938271604938267,0)" xlink:href="#ak"/><use transform="matrix(0.09938271604938267,0,0,0.09938271604938267,29.814814814814802,0)" xlink:href="#ai"/></g><path fill="#333" d="M220-157c-53 9-28 100-34 157h-49v-107c1-27-5-49-29-50C55-147 81-57 75 0H25l-1-190h47c2 12-1 28 3 38 10-53 101-56 108 0 13-22 24-43 59-42 82 1 51 116 57 194h-49v-107c-1-25-5-48-29-50" id="aM"/><g id="z"><use transform="matrix(0.09938271604938267,0,0,0.09938271604938267,0,0)" xlink:href="#al"/><use transform="matrix(0.09938271604938267,0,0,0.09938271604938267,21.764814814814805,0)" xlink:href="#ak"/><use transform="matrix(0.09938271604938267,0,0,0.09938271604938267,41.64135802469134,0)" xlink:href="#aM"/><use transform="matrix(0.09938271604938267,0,0,0.09938271604938267,73.4438271604938,0)" xlink:href="#at"/><use transform="matrix(0.09938271604938267,0,0,0.09938271604938267,93.32037037037033,0)" xlink:href="#as"/><use transform="matrix(0.09938271604938267,0,0,0.09938271604938267,115.08518518518514,0)" xlink:href="#al"/><use transform="matrix(0.09938271604938267,0,0,0.09938271604938267,136.84999999999994,0)" xlink:href="#ak"/><use transform="matrix(0.09938271604938267,0,0,0.09938271604938267,156.72654320987647,0)" xlink:href="#ai"/></g><g id="A"><use transform="matrix(0.09938271604938267,0,0,0.09938271604938267,0,0)" xlink:href="#al"/><use transform="matrix(0.09938271604938267,0,0,0.09938271604938267,21.764814814814805,0)" xlink:href="#ak"/></g><g id="B"><use transform="matrix(0.09938271604938267,0,0,0.09938271604938267,0,0)" xlink:href="#aH"/><use transform="matrix(0.09938271604938267,0,0,0.09938271604938267,21.764814814814805,0)" xlink:href="#aq"/><use transform="matrix(0.09938271604938267,0,0,0.09938271604938267,35.67839506172838,0)" xlink:href="#ak"/><use transform="matrix(0.09938271604938267,0,0,0.09938271604938267,55.55493827160492,0)" xlink:href="#aI"/><use transform="matrix(0.09938271604938267,0,0,0.09938271604938267,75.43148148148144,0)" xlink:href="#ak"/><use transform="matrix(0.09938271604938267,0,0,0.09938271604938267,95.30802469135797,0)" xlink:href="#aj"/><use transform="matrix(0.09938271604938267,0,0,0.09938271604938267,107.1345679012345,0)" xlink:href="#ai"/></g><g id="C"><use transform="matrix(0.09938271604938267,0,0,0.09938271604938267,0,0)" xlink:href="#al"/><use transform="matrix(0.09938271604938267,0,0,0.09938271604938267,21.764814814814805,0)" xlink:href="#ak"/><use transform="matrix(0.09938271604938267,0,0,0.09938271604938267,41.64135802469134,0)" xlink:href="#ap"/><use transform="matrix(0.09938271604938267,0,0,0.09938271604938267,63.40617283950615,0)" xlink:href="#aw"/><use transform="matrix(0.09938271604938267,0,0,0.09938271604938267,85.17098765432095,0)" xlink:href="#ah"/><use transform="matrix(0.09938271604938267,0,0,0.09938271604938267,95.10925925925922,0)" xlink:href="#ai"/></g><path fill="#333" d="M182-182c0 78-84 86-111 141h115V0H12c-6-101 99-100 120-180 1-22-12-31-33-32-23 0-32 14-35 34l-49-3c5-45 32-70 84-70 51 0 83 22 83 69" id="aN"/><path fill="#333" d="M101-251c68 0 84 54 84 127C185-50 166 4 99 4S15-52 14-124c-1-75 17-127 87-127zm-1 216c37-5 36-46 36-89s4-89-36-89c-39 0-36 45-36 89 0 43-3 85 36 89" id="aO"/><path fill="#333" d="M23 0v-37h61v-169l-59 37v-38l62-41h46v211h57V0H23" id="aP"/><g id="D"><use transform="matrix(0.09938271604938267,0,0,0.09938271604938267,0,0)" xlink:href="#aN"/><use transform="matrix(0.09938271604938267,0,0,0.09938271604938267,19.876543209876534,0)" xlink:href="#aO"/><use transform="matrix(0.09938271604938267,0,0,0.09938271604938267,39.75308641975307,0)" xlink:href="#aP"/><use transform="matrix(0.09938271604938267,0,0,0.09938271604938267,59.629629629629605,0)" xlink:href="#aO"/></g><g id="E"><use transform="matrix(0.09938271604938267,0,0,0.09938271604938267,0,0)" xlink:href="#al"/><use transform="matrix(0.09938271604938267,0,0,0.09938271604938267,21.764814814814805,0)" xlink:href="#at"/><use transform="matrix(0.09938271604938267,0,0,0.09938271604938267,41.64135802469134,0)" xlink:href="#as"/><use transform="matrix(0.09938271604938267,0,0,0.09938271604938267,63.40617283950615,0)" xlink:href="#ai"/></g><g id="F"><use transform="matrix(0.09938271604938267,0,0,0.09938271604938267,0,0)" xlink:href="#au"/><use transform="matrix(0.09938271604938267,0,0,0.09938271604938267,9.938271604938267,0)" xlink:href="#at"/></g><g id="G"><use transform="matrix(0.09938271604938267,0,0,0.09938271604938267,0,0)" xlink:href="#aB"/><use transform="matrix(0.09938271604938267,0,0,0.09938271604938267,21.168518518518507,0)" xlink:href="#aJ"/><use transform="matrix(0.09938271604938267,0,0,0.09938271604938267,44.22530864197529,0)" xlink:href="#aK"/><use transform="matrix(0.09938271604938267,0,0,0.09938271604938267,65.99012345679009,0)" xlink:href="#aD"/><use transform="matrix(0.09938271604938267,0,0,0.09938271604938267,89.84197530864193,0)" xlink:href="#aK"/><use transform="matrix(0.09938271604938267,0,0,0.09938271604938267,108.92345679012338,0)" xlink:href="#aJ"/><use transform="matrix(0.09938271604938267,0,0,0.09938271604938267,131.98024691358017,0)" xlink:href="#aK"/></g><path fill="#333" d="M85 4C-2 5 27-109 22-190h50c7 57-23 150 33 157 60-5 35-97 40-157h50l1 190h-47c-2-12 1-28-3-38-12 25-28 42-61 42zm24-212l-59-48v-8h45l44 51v5h-30" id="aQ"/><g id="H"><use transform="matrix(0.09938271604938267,0,0,0.09938271604938267,0,0)" xlink:href="#av"/><use transform="matrix(0.09938271604938267,0,0,0.09938271604938267,21.764814814814805,0)" xlink:href="#aQ"/></g><g id="I"><use transform="matrix(0.09938271604938267,0,0,0.09938271604938267,0,0)" xlink:href="#at"/><use transform="matrix(0.09938271604938267,0,0,0.09938271604938267,19.876543209876534,0)" xlink:href="#aw"/></g><g id="J"><use transform="matrix(0.09938271604938267,0,0,0.09938271604938267,0,0)" xlink:href="#aM"/><use transform="matrix(0.09938271604938267,0,0,0.09938271604938267,31.802469135802454,0)" xlink:href="#av"/><use transform="matrix(0.09938271604938267,0,0,0.09938271604938267,53.56728395061726,0)" xlink:href="#ah"/><use transform="matrix(0.09938271604938267,0,0,0.09938271604938267,63.50555555555553,0)" xlink:href="#as"/><use transform="matrix(0.09938271604938267,0,0,0.09938271604938267,85.27037037037033,0)" xlink:href="#ai"/></g><g id="K"><use transform="matrix(0.09938271604938267,0,0,0.09938271604938267,0,0)" xlink:href="#aw"/><use transform="matrix(0.09938271604938267,0,0,0.09938271604938267,21.764814814814805,0)" xlink:href="#as"/><use transform="matrix(0.09938271604938267,0,0,0.09938271604938267,43.52962962962961,0)" xlink:href="#ak"/></g><g id="L"><use transform="matrix(0.09938271604938267,0,0,0.09938271604938267,0,0)" xlink:href="#al"/><use transform="matrix(0.09938271604938267,0,0,0.09938271604938267,21.764814814814805,0)" xlink:href="#ak"/><use transform="matrix(0.09938271604938267,0,0,0.09938271604938267,41.64135802469134,0)" xlink:href="#ai"/></g><g id="M"><use transform="matrix(0.09938271604938267,0,0,0.09938271604938267,0,0)" xlink:href="#ap"/><use transform="matrix(0.09938271604938267,0,0,0.09938271604938267,21.764814814814805,0)" xlink:href="#ak"/><use transform="matrix(0.09938271604938267,0,0,0.09938271604938267,41.64135802469134,0)" xlink:href="#aq"/><use transform="matrix(0.09938271604938267,0,0,0.09938271604938267,55.55493827160492,0)" xlink:href="#ai"/><use transform="matrix(0.09938271604938267,0,0,0.09938271604938267,75.43148148148146,0)" xlink:href="#av"/><use transform="matrix(0.09938271604938267,0,0,0.09938271604938267,97.19629629629625,0)" xlink:href="#as"/><use transform="matrix(0.09938271604938267,0,0,0.09938271604938267,118.96111111111107,0)" xlink:href="#as"/><use transform="matrix(0.09938271604938267,0,0,0.09938271604938267,140.72592592592585,0)" xlink:href="#ak"/></g><g id="N"><use transform="matrix(0.09938271604938267,0,0,0.09938271604938267,0,0)" xlink:href="#ak"/><use transform="matrix(0.09938271604938267,0,0,0.09938271604938267,19.876543209876534,0)" xlink:href="#ai"/><use transform="matrix(0.09938271604938267,0,0,0.09938271604938267,39.75308641975307,0)" xlink:href="#aj"/></g><g id="O"><use transform="matrix(0.09938271604938267,0,0,0.09938271604938267,0,0)" xlink:href="#au"/><use transform="matrix(0.09938271604938267,0,0,0.09938271604938267,9.938271604938267,0)" xlink:href="#av"/><use transform="matrix(0.09938271604938267,0,0,0.09938271604938267,31.703086419753074,0)" xlink:href="#aF"/><use transform="matrix(0.09938271604938267,0,0,0.09938271604938267,51.57962962962961,0)" xlink:href="#at"/><use transform="matrix(0.09938271604938267,0,0,0.09938271604938267,71.45617283950614,0)" xlink:href="#au"/><use transform="matrix(0.09938271604938267,0,0,0.09938271604938267,81.3944444444444,0)" xlink:href="#ah"/><use transform="matrix(0.09938271604938267,0,0,0.09938271604938267,91.33271604938267,0)" xlink:href="#ai"/><use transform="matrix(0.09938271604938267,0,0,0.09938271604938267,111.20925925925918,0)" xlink:href="#ar"/><use transform="matrix(0.09938271604938267,0,0,0.09938271604938267,131.08580246913573,0)" xlink:href="#ak"/></g><g id="P"><use transform="matrix(0.09938271604938267,0,0,0.09938271604938267,0,0)" xlink:href="#ak"/><use transform="matrix(0.09938271604938267,0,0,0.09938271604938267,19.876543209876534,0)" xlink:href="#as"/></g><path fill="#333" d="M76-208v77h127v40H76V0H24v-248h183v40H76" id="aR"/><g id="Q"><use transform="matrix(0.09938271604938267,0,0,0.09938271604938267,0,0)" xlink:href="#aR"/><use transform="matrix(0.09938271604938267,0,0,0.09938271604938267,21.764814814814805,0)" xlink:href="#aq"/><use transform="matrix(0.09938271604938267,0,0,0.09938271604938267,35.67839506172838,0)" xlink:href="#at"/><use transform="matrix(0.09938271604938267,0,0,0.09938271604938267,55.55493827160492,0)" xlink:href="#as"/><use transform="matrix(0.09938271604938267,0,0,0.09938271604938267,77.31975308641972,0)" xlink:href="#aF"/><use transform="matrix(0.09938271604938267,0,0,0.09938271604938267,97.19629629629625,0)" xlink:href="#ak"/></g><g id="R"><use transform="matrix(0.09938271604938267,0,0,0.09938271604938267,0,0)" xlink:href="#al"/><use transform="matrix(0.09938271604938267,0,0,0.09938271604938267,21.764814814814805,0)" xlink:href="#ak"/><use transform="matrix(0.09938271604938267,0,0,0.09938271604938267,41.64135802469134,0)" xlink:href="#ap"/><use transform="matrix(0.09938271604938267,0,0,0.09938271604938267,63.40617283950615,0)" xlink:href="#aw"/><use transform="matrix(0.09938271604938267,0,0,0.09938271604938267,85.17098765432095,0)" xlink:href="#ah"/><use transform="matrix(0.09938271604938267,0,0,0.09938271604938267,95.10925925925922,0)" xlink:href="#ai"/></g><g id="S"><use transform="matrix(0.09938271604938267,0,0,0.09938271604938267,0,0)" xlink:href="#aM"/><use transform="matrix(0.09938271604938267,0,0,0.09938271604938267,31.802469135802454,0)" xlink:href="#av"/><use transform="matrix(0.09938271604938267,0,0,0.09938271604938267,53.56728395061726,0)" xlink:href="#ah"/><use transform="matrix(0.09938271604938267,0,0,0.09938271604938267,63.50555555555553,0)" xlink:href="#as"/><use transform="matrix(0.09938271604938267,0,0,0.09938271604938267,85.27037037037033,0)" xlink:href="#ai"/></g><g id="T"><use transform="matrix(0.09938271604938267,0,0,0.09938271604938267,0,0)" xlink:href="#al"/><use transform="matrix(0.09938271604938267,0,0,0.09938271604938267,21.764814814814805,0)" xlink:href="#ak"/><use transform="matrix(0.09938271604938267,0,0,0.09938271604938267,41.64135802469134,0)" xlink:href="#ai"/></g><g id="U"><use transform="matrix(0.09938271604938267,0,0,0.09938271604938267,0,0)" xlink:href="#ak"/><use transform="matrix(0.09938271604938267,0,0,0.09938271604938267,19.876543209876534,0)" xlink:href="#ai"/><use transform="matrix(0.09938271604938267,0,0,0.09938271604938267,39.75308641975307,0)" xlink:href="#aj"/></g><g id="V"><use transform="matrix(0.09938271604938267,0,0,0.09938271604938267,0,0)" xlink:href="#ak"/><use transform="matrix(0.09938271604938267,0,0,0.09938271604938267,19.876543209876534,0)" xlink:href="#as"/></g><g id="W"><use transform="matrix(0.09938271604938267,0,0,0.09938271604938267,0,0)" xlink:href="#aR"/><use transform="matrix(0.09938271604938267,0,0,0.09938271604938267,21.764814814814805,0)" xlink:href="#aq"/><use transform="matrix(0.09938271604938267,0,0,0.09938271604938267,35.67839506172838,0)" xlink:href="#at"/><use transform="matrix(0.09938271604938267,0,0,0.09938271604938267,55.55493827160492,0)" xlink:href="#as"/><use transform="matrix(0.09938271604938267,0,0,0.09938271604938267,77.31975308641972,0)" xlink:href="#aF"/><use transform="matrix(0.09938271604938267,0,0,0.09938271604938267,97.19629629629625,0)" xlink:href="#ak"/></g><path fill="#333" d="M132-34C116-15 102 5 68 4 31 3 10-16 10-54c-1-60 55-63 116-61 1-26-3-47-28-47-18 1-26 9-28 27l-52-2c7-38 36-58 82-57s74 22 75 68l1 82c-1 14 12 18 25 15v27c-30 8-71 5-69-32zm-48 3c29 0 43-24 42-57-32 0-66-3-65 30 0 17 8 27 23 27zm18-177l-59-48v-8h45l44 51v5h-30" id="aS"/><use transform="matrix(0.09938271604938267,0,0,0.09938271604938267,0,0)" xlink:href="#aS" id="X"/><g id="Y"><use transform="matrix(0.09938271604938267,0,0,0.09938271604938267,0,0)" xlink:href="#au"/><use transform="matrix(0.09938271604938267,0,0,0.09938271604938267,9.938271604938267,0)" xlink:href="#aA"/><use transform="matrix(0.09938271604938267,0,0,0.09938271604938267,18.385802469135797,0)" xlink:href="#at"/><use transform="matrix(0.09938271604938267,0,0,0.09938271604938267,38.26234567901233,0)" xlink:href="#ah"/><use transform="matrix(0.09938271604938267,0,0,0.09938271604938267,48.20061728395059,0)" xlink:href="#al"/><use transform="matrix(0.09938271604938267,0,0,0.09938271604938267,69.9654320987654,0)" xlink:href="#ak"/></g><g id="Z"><use transform="matrix(0.09938271604938267,0,0,0.09938271604938267,0,0)" xlink:href="#as"/><use transform="matrix(0.09938271604938267,0,0,0.09938271604938267,21.764814814814805,0)" xlink:href="#aw"/><use transform="matrix(0.09938271604938267,0,0,0.09938271604938267,43.52962962962961,0)" xlink:href="#aM"/><use transform="matrix(0.09938271604938267,0,0,0.09938271604938267,75.33209876543206,0)" xlink:href="#ar"/><use transform="matrix(0.09938271604938267,0,0,0.09938271604938267,95.2086419753086,0)" xlink:href="#aq"/><use transform="matrix(0.09938271604938267,0,0,0.09938271604938267,109.12222222222215,0)" xlink:href="#av"/><use transform="matrix(0.09938271604938267,0,0,0.09938271604938267,130.88703703703698,0)" xlink:href="#ai"/></g><g id="aa"><use transform="matrix(0.09938271604938267,0,0,0.09938271604938267,0,0)" xlink:href="#al"/><use transform="matrix(0.09938271604938267,0,0,0.09938271604938267,21.764814814814805,0)" xlink:href="#ak"/><use transform="matrix(0.09938271604938267,0,0,0.09938271604938267,41.64135802469134,0)" xlink:href="#aM"/><use transform="matrix(0.09938271604938267,0,0,0.09938271604938267,73.4438271604938,0)" xlink:href="#at"/><use transform="matrix(0.09938271604938267,0,0,0.09938271604938267,93.32037037037033,0)" xlink:href="#as"/><use transform="matrix(0.09938271604938267,0,0,0.09938271604938267,115.08518518518514,0)" xlink:href="#al"/><use transform="matrix(0.09938271604938267,0,0,0.09938271604938267,136.84999999999994,0)" xlink:href="#ak"/></g><g id="ab"><use transform="matrix(0.09938271604938267,0,0,0.09938271604938267,0,0)" xlink:href="#ag"/><use transform="matrix(0.09938271604938267,0,0,0.09938271604938267,21.764814814814805,0)" xlink:href="#ah"/><use transform="matrix(0.09938271604938267,0,0,0.09938271604938267,31.703086419753074,0)" xlink:href="#ai"/><use transform="matrix(0.09938271604938267,0,0,0.09938271604938267,51.57962962962961,0)" xlink:href="#aj"/><use transform="matrix(0.09938271604938267,0,0,0.09938271604938267,63.40617283950615,0)" xlink:href="#ak"/></g><g id="ac"><use transform="matrix(0.09938271604938267,0,0,0.09938271604938267,0,0)" xlink:href="#aK"/><use transform="matrix(0.09938271604938267,0,0,0.09938271604938267,21.764814814814805,0)" xlink:href="#ay"/><use transform="matrix(0.09938271604938267,0,0,0.09938271604938267,45.616666666666646,0)" xlink:href="#am"/><use transform="matrix(0.09938271604938267,0,0,0.09938271604938267,71.35679012345676,0)" xlink:href="#aD"/></g><g id="ad"><use transform="matrix(0.09938271604938267,0,0,0.09938271604938267,0,0)" xlink:href="#al"/><use transform="matrix(0.09938271604938267,0,0,0.09938271604938267,21.764814814814805,0)" xlink:href="#ak"/><use transform="matrix(0.09938271604938267,0,0,0.09938271604938267,41.64135802469134,0)" xlink:href="#ai"/></g><g id="ae"><use transform="matrix(0.09938271604938267,0,0,0.09938271604938267,0,0)" xlink:href="#al"/><use transform="matrix(0.09938271604938267,0,0,0.09938271604938267,21.764814814814805,0)" xlink:href="#ar"/><use transform="matrix(0.09938271604938267,0,0,0.09938271604938267,41.64135802469134,0)" xlink:href="#ap"/><use transform="matrix(0.09938271604938267,0,0,0.09938271604938267,63.40617283950615,0)" xlink:href="#av"/><use transform="matrix(0.09938271604938267,0,0,0.09938271604938267,85.17098765432095,0)" xlink:href="#ai"/><use transform="matrix(0.09938271604938267,0,0,0.09938271604938267,105.04753086419748,0)" xlink:href="#at"/><use transform="matrix(0.09938271604938267,0,0,0.09938271604938267,124.92407407407403,0)" xlink:href="#as"/><use transform="matrix(0.09938271604938267,0,0,0.09938271604938267,146.6888888888888,0)" xlink:href="#aj"/><use transform="matrix(0.09938271604938267,0,0,0.09938271604938267,158.51543209876536,0)" xlink:href="#ai"/></g><path fill="#333" d="M190-63c-7 42-38 67-86 67-59 0-84-38-90-98-12-110 154-137 174-36l-49 2c-2-19-15-32-35-32-30 0-35 28-38 64-6 74 65 87 74 30zm-84 77c20 1 33 9 33 27 0 32-36 36-71 33V53c15 1 39 4 39-11 0-13-16-12-31-12L87 0h25" id="aT"/><g id="af"><use transform="matrix(0.09938271604938267,0,0,0.09938271604938267,0,0)" xlink:href="#aL"/><use transform="matrix(0.09938271604938267,0,0,0.09938271604938267,11.826543209876538,0)" xlink:href="#aq"/><use transform="matrix(0.09938271604938267,0,0,0.09938271604938267,25.740123456790112,0)" xlink:href="#at"/><use transform="matrix(0.09938271604938267,0,0,0.09938271604938267,45.616666666666646,0)" xlink:href="#as"/><use transform="matrix(0.09938271604938267,0,0,0.09938271604938267,67.38148148148144,0)" xlink:href="#aT"/><use transform="matrix(0.09938271604938267,0,0,0.09938271604938267,87.25802469135797,0)" xlink:href="#at"/><use transform="matrix(0.09938271604938267,0,0,0.09938271604938267,107.1345679012345,0)" xlink:href="#ah"/><use transform="matrix(0.09938271604938267,0,0,0.09938271604938267,117.07283950617277,0)" xlink:href="#ai"/></g></defs></g></svg>