<svg xmlns="http://www.w3.org/2000/svg" xmlns:xlink="http://www.w3.org/1999/xlink" xmlns:lucid="lucid" width="2645.67" height="1870.87"><g transform="translate(0 0)" lucid:page-tab-id="0_0"><path d="M500 108a8 8 0 0 1 8-8h1584a8 8 0 0 1 8 8v62.65a8 8 0 0 1-8 8H508a8 8 0 0 1-8-8z" stroke="#000" stroke-opacity="0" stroke-width="2" fill="#fff" fill-opacity="0"/><use xlink:href="#a" transform="matrix(1,0,0,1,504,104) translate(26.55567901234565 26.351111111111106)"/><use xlink:href="#b" transform="matrix(1,0,0,1,504,104) translate(203.7013580246913 26.351111111111106)"/><use xlink:href="#c" transform="matrix(1,0,0,1,504,104) translate(241.505061728395 26.351111111111106)"/><use xlink:href="#d" transform="matrix(1,0,0,1,504,104) translate(270.6408641975308 26.351111111111106)"/><use xlink:href="#e" transform="matrix(1,0,0,1,504,104) translate(403.063086419753 26.351111111111106)"/><use xlink:href="#f" transform="matrix(1,0,0,1,504,104) translate(455.4346913580246 26.351111111111106)"/><use xlink:href="#g" transform="matrix(1,0,0,1,504,104) translate(555.8075308641975 26.351111111111106)"/><use xlink:href="#c" transform="matrix(1,0,0,1,504,104) translate(593.6112345679012 26.351111111111106)"/><use xlink:href="#h" transform="matrix(1,0,0,1,504,104) translate(622.747037037037 26.351111111111106)"/><use xlink:href="#i" transform="matrix(1,0,0,1,504,104) translate(689.6865432098765 26.351111111111106)"/><use xlink:href="#j" transform="matrix(1,0,0,1,504,104) translate(795.668024691358 26.351111111111106)"/><use xlink:href="#e" transform="matrix(1,0,0,1,504,104) translate(872.6593827160494 26.351111111111106)"/><use xlink:href="#k" transform="matrix(1,0,0,1,504,104) translate(925.030987654321 26.351111111111106)"/><use xlink:href="#l" transform="matrix(1,0,0,1,504,104) translate(1086.2976543209875 26.351111111111106)"/><use xlink:href="#m" transform="matrix(1,0,0,1,504,104) translate(1223.0902469135804 26.351111111111106)"/><use xlink:href="#n" transform="matrix(1,0,0,1,504,104) translate(1353.9828395061727 26.351111111111106)"/><use xlink:href="#o" transform="matrix(1,0,0,1,504,104) translate(1422.3062962962963 26.351111111111106)"/><use xlink:href="#p" transform="matrix(1,0,0,1,504,104) translate(1466.0099999999998 26.351111111111106)"/><use xlink:href="#q" transform="matrix(1,0,0,1,504,104) translate(660.5549382716049 57.81777777777778)"/><use xlink:href="#r" transform="matrix(1,0,0,1,504,104) translate(699.7425925925926 57.81777777777778)"/><use xlink:href="#s" transform="matrix(1,0,0,1,504,104) translate(771.0524691358024 57.81777777777778)"/><use xlink:href="#g" transform="matrix(1,0,0,1,504,104) translate(801.5722222222222 57.81777777777778)"/><use xlink:href="#t" transform="matrix(1,0,0,1,504,104) translate(839.3759259259259 57.81777777777778)"/><path d="M1026.15 176.1h562.43M1026.17 176.1h-1.02M1588.56 176.1h1.02" stroke="#a9afb8" stroke-width="2" fill="none"/><path d="M307.35 357.13a8 8 0 0 1 8-8h283.48a8 8 0 0 1 8 8v169.8c-50-29.7-81.16-29.7-100.03-29.7-29.94 0-69.77 29.7-99.72 29.7-18.57 0-50 0-99.73-29.7z" stroke="#333" fill="#fff"/><path d="M324 372.8a8 8 0 0 1 8-8h283.47a8 8 0 0 1 8 8v169.8c-50.02-29.68-81.16-29.68-100.03-29.68-29.95 0-69.78 29.7-99.72 29.7-18.57 0-50.02 0-99.73-29.7z" stroke="#333" fill="#fff"/><path d="M340.63 388.5a8 8 0 0 1 8-8H632.1a8 8 0 0 1 8 8v169.8c-50-29.7-81.15-29.7-100.02-29.7-29.95 0-69.78 29.7-99.73 29.7-18.56 0-50 0-99.72-29.7z" stroke="#333" fill="#fff"/><use xlink:href="#u" transform="matrix(1,0,0,1,345.6293537769839,385.5003234389112) translate(51.013888888888914 20.122222222222224)"/><use xlink:href="#v" transform="matrix(1,0,0,1,345.6293537769839,385.5003234389112) translate(109.49413580246915 20.122222222222224)"/><use xlink:href="#w" transform="matrix(1,0,0,1,345.6293537769839,385.5003234389112) translate(154.3206790123457 20.122222222222224)"/><use xlink:href="#x" transform="matrix(1,0,0,1,345.6293537769839,385.5003234389112) translate(200.39413580246912 20.122222222222224)"/><use xlink:href="#y" transform="matrix(1,0,0,1,345.6293537769839,385.5003234389112) translate(20.558024691358042 47.05555555555556)"/><use xlink:href="#z" transform="matrix(1,0,0,1,345.6293537769839,385.5003234389112) translate(158.59135802469135 47.05555555555556)"/><use xlink:href="#A" transform="matrix(1,0,0,1,345.6293537769839,385.5003234389112) translate(44.155864197530875 73.98888888888888)"/><use xlink:href="#B" transform="matrix(1,0,0,1,345.6293537769839,385.5003234389112) translate(156.19104938271605 73.98888888888888)"/><use xlink:href="#C" transform="matrix(1,0,0,1,345.6293537769839,385.5003234389112) translate(214.6712962962963 73.98888888888888)"/><use xlink:href="#D" transform="matrix(1,0,0,1,345.6293537769839,385.5003234389112) translate(23.083024691358077 100.9222222222222)"/><use xlink:href="#E" transform="matrix(1,0,0,1,345.6293537769839,385.5003234389112) translate(120.09290123456792 100.9222222222222)"/><use xlink:href="#F" transform="matrix(1,0,0,1,345.6293537769839,385.5003234389112) translate(153.63487654320988 100.9222222222222)"/><use xlink:href="#G" transform="matrix(1,0,0,1,345.6293537769839,385.5003234389112) translate(214.67129629629628 100.9222222222222)"/><use xlink:href="#H" transform="matrix(1,0,0,1,345.6293537769839,385.5003234389112) translate(240.7941358024691 100.9222222222222)"/><use xlink:href="#I" transform="matrix(1,0,0,1,345.6293537769839,385.5003234389112) translate(105.59753086419754 127.85555555555554)"/><path d="M641.1 453.7h189.37" stroke="#333" fill="none"/><path d="M641.12 454.2h-.52v-.96h.52z" stroke="#333" stroke-width=".05" fill="#333"/><path d="M845.24 453.7l-14.27 4.65v-9.28z" stroke="#333" fill="#333"/><path d="M847.35 357.13a8 8 0 0 1 8-8h316.75a8 8 0 0 1 8 8V550.3a8 8 0 0 1-8 8H855.35a8 8 0 0 1-8-8z" stroke="#333" fill="#fff"/><use xlink:href="#J" transform="matrix(1,0,0,1,852.3544029301725,354.1246040656572) translate(1.4898148148148493 77.55555555555556)"/><use xlink:href="#K" transform="matrix(1,0,0,1,852.3544029301725,354.1246040656572) translate(122.2533950617284 77.55555555555556)"/><use xlink:href="#L" transform="matrix(1,0,0,1,852.3544029301725,354.1246040656572) translate(154.6108024691358 77.55555555555556)"/><use xlink:href="#w" transform="matrix(1,0,0,1,852.3544029301725,354.1246040656572) translate(198.25277777777774 77.55555555555556)"/><use xlink:href="#B" transform="matrix(1,0,0,1,852.3544029301725,354.1246040656572) translate(244.3262345679012 77.55555555555556)"/><use xlink:href="#M" transform="matrix(1,0,0,1,852.3544029301725,354.1246040656572) translate(302.80648148148146 77.55555555555556)"/><use xlink:href="#N" transform="matrix(1,0,0,1,852.3544029301725,354.1246040656572) translate(17.045061728395098 104.48888888888888)"/><use xlink:href="#O" transform="matrix(1,0,0,1,852.3544029301725,354.1246040656572) translate(68.1061728395062 104.48888888888888)"/><use xlink:href="#w" transform="matrix(1,0,0,1,852.3544029301725,354.1246040656572) translate(112.93271604938273 104.48888888888888)"/><use xlink:href="#P" transform="matrix(1,0,0,1,852.3544029301725,354.1246040656572) translate(159.0061728395062 104.48888888888888)"/><use xlink:href="#B" transform="matrix(1,0,0,1,852.3544029301725,354.1246040656572) translate(216.30185185185186 104.48888888888888)"/><use xlink:href="#C" transform="matrix(1,0,0,1,852.3544029301725,354.1246040656572) translate(274.7820987654321 104.48888888888888)"/><use xlink:href="#Q" transform="matrix(1,0,0,1,852.3544029301725,354.1246040656572) translate(13.023765432098799 131.42222222222222)"/><use xlink:href="#R" transform="matrix(1,0,0,1,852.3544029301725,354.1246040656572) translate(98.93611111111112 131.42222222222222)"/><use xlink:href="#S" transform="matrix(1,0,0,1,852.3544029301725,354.1246040656572) translate(131.2935185185185 131.42222222222222)"/><use xlink:href="#T" transform="matrix(1,0,0,1,852.3544029301725,354.1246040656572) translate(156.2317901234568 131.42222222222222)"/><use xlink:href="#U" transform="matrix(1,0,0,1,852.3544029301725,354.1246040656572) translate(213.52746913580245 131.42222222222222)"/><path d="M1181.1 453.7h163.13" stroke="#333" fill="none"/><path d="M1181.12 454.2h-.52v-.96h.52z" stroke="#333" stroke-width=".05" fill="#333"/><path d="M1359 453.7l-14.27 4.65v-9.28z" stroke="#333" fill="#333"/><path d="M1361.1 357.13a8 8 0 0 1 8-8h316.76a8 8 0 0 1 8 8V550.3a8 8 0 0 1-8 8H1369.1a8 8 0 0 1-8-8z" stroke="#333" fill="#fff"/><g><use xlink:href="#J" transform="matrix(1,0,0,1,1366.1115966627124,354.1246040656571) translate(15.237037037037055 64.0888888888889)"/><use xlink:href="#v" transform="matrix(1,0,0,1,1366.1115966627124,354.1246040656571) translate(136.0006172839506 64.0888888888889)"/><use xlink:href="#V" transform="matrix(1,0,0,1,1366.1115966627124,354.1246040656571) translate(180.82716049382714 64.0888888888889)"/><use xlink:href="#H" transform="matrix(1,0,0,1,1366.1115966627124,354.1246040656571) translate(281.6401234567901 64.0888888888889)"/><use xlink:href="#W" transform="matrix(1,0,0,1,1366.1115966627124,354.1246040656571) translate(18.323148148148192 91.02222222222223)"/><use xlink:href="#O" transform="matrix(1,0,0,1,1366.1115966627124,354.1246040656571) translate(122.87685185185187 91.02222222222223)"/><use xlink:href="#Q" transform="matrix(1,0,0,1,1366.1115966627124,354.1246040656571) translate(167.7033950617284 91.02222222222223)"/><use xlink:href="#R" transform="matrix(1,0,0,1,1366.1115966627124,354.1246040656571) translate(253.61574074074073 91.02222222222223)"/><use xlink:href="#M" transform="matrix(1,0,0,1,1366.1115966627124,354.1246040656571) translate(285.9731481481481 91.02222222222223)"/><use xlink:href="#T" transform="matrix(1,0,0,1,1366.1115966627124,354.1246040656571) translate(9.93765432098769 117.95555555555555)"/><use xlink:href="#X" transform="matrix(1,0,0,1,1366.1115966627124,354.1246040656571) translate(67.23333333333335 117.95555555555555)"/><use xlink:href="#Y" transform="matrix(1,0,0,1,1366.1115966627124,354.1246040656571) translate(169.91666666666666 117.95555555555555)"/><use xlink:href="#Z" transform="matrix(1,0,0,1,1366.1115966627124,354.1246040656571) translate(235.81604938271602 117.95555555555555)"/><use xlink:href="#aa" transform="matrix(1,0,0,1,1366.1115966627124,354.1246040656571) translate(273.2234567901234 117.95555555555555)"/><use xlink:href="#ab" transform="matrix(1,0,0,1,1366.1115966627124,354.1246040656571) translate(112.37160493827162 144.88888888888889)"/></g><path d="M307.35 1320.57a8 8 0 0 1 8-8H632.1a8 8 0 0 1 8 8v193.17a8 8 0 0 1-8 8H315.35a8 8 0 0 1-8-8z" stroke="#333" fill="#fff"/><g><use xlink:href="#ac" transform="matrix(1,0,0,1,312.35440293017245,1317.5700751782658) translate(5.261728395061766 50.62222222222222)"/><use xlink:href="#ad" transform="matrix(1,0,0,1,312.35440293017245,1317.5700751782658) translate(137.18518518518516 50.62222222222222)"/><use xlink:href="#ae" transform="matrix(1,0,0,1,312.35440293017245,1317.5700751782658) translate(174.59259259259255 50.62222222222222)"/><use xlink:href="#H" transform="matrix(1,0,0,1,312.35440293017245,1317.5700751782658) translate(291.6154320987654 50.62222222222222)"/><use xlink:href="#Q" transform="matrix(1,0,0,1,312.35440293017245,1317.5700751782658) translate(12.712037037037078 77.55555555555556)"/><use xlink:href="#af" transform="matrix(1,0,0,1,312.35440293017245,1317.5700751782658) translate(98.6243827160494 77.55555555555556)"/><use xlink:href="#ag" transform="matrix(1,0,0,1,312.35440293017245,1317.5700751782658) translate(176.9929012345679 77.55555555555556)"/><use xlink:href="#B" transform="matrix(1,0,0,1,312.35440293017245,1317.5700751782658) translate(233.104012345679 77.55555555555556)"/><use xlink:href="#M" transform="matrix(1,0,0,1,312.35440293017245,1317.5700751782658) translate(291.5842592592592 77.55555555555556)"/><use xlink:href="#T" transform="matrix(1,0,0,1,312.35440293017245,1317.5700751782658) translate(15.57993827160496 104.48888888888888)"/><use xlink:href="#X" transform="matrix(1,0,0,1,312.35440293017245,1317.5700751782658) translate(72.87561728395062 104.48888888888888)"/><use xlink:href="#ah" transform="matrix(1,0,0,1,312.35440293017245,1317.5700751782658) translate(175.55895061728393 104.48888888888888)"/><use xlink:href="#ai" transform="matrix(1,0,0,1,312.35440293017245,1317.5700751782658) translate(209.1009259259259 104.48888888888888)"/><use xlink:href="#aj" transform="matrix(1,0,0,1,312.35440293017245,1317.5700751782658) translate(241.45833333333331 104.48888888888888)"/><use xlink:href="#ak" transform="matrix(1,0,0,1,312.35440293017245,1317.5700751782658) translate(46.409876543209904 131.42222222222222)"/><use xlink:href="#O" transform="matrix(1,0,0,1,312.35440293017245,1317.5700751782658) translate(92.42098765432101 131.42222222222222)"/><use xlink:href="#al" transform="matrix(1,0,0,1,312.35440293017245,1317.5700751782658) translate(137.24753086419753 131.42222222222222)"/><use xlink:href="#am" transform="matrix(1,0,0,1,312.35440293017245,1317.5700751782658) translate(244.2327160493827 131.42222222222222)"/><use xlink:href="#an" transform="matrix(1,0,0,1,312.35440293017245,1317.5700751782658) translate(58.13086419753088 158.35555555555553)"/><use xlink:href="#ao" transform="matrix(1,0,0,1,312.35440293017245,1317.5700751782658) translate(159.06851851851854 158.35555555555553)"/><use xlink:href="#ap" transform="matrix(1,0,0,1,312.35440293017245,1317.5700751782658) translate(191.42592592592592 158.35555555555553)"/></g><path d="M641.1 1417.16h9.37" stroke="#333" fill="none"/><path d="M641.12 1417.63h-.52v-.95h.52z" stroke="#333" stroke-width=".05" fill="#333"/><path d="M665.24 1417.16l-14.27 4.63v-9.28z" stroke="#333" fill="#333"/><path d="M667.35 1320.57a8 8 0 0 1 8-8H992.1a8 8 0 0 1 8 8v193.17a8 8 0 0 1-8 8H675.35a8 8 0 0 1-8-8z" stroke="#333" fill="#fff"/><g><use xlink:href="#aq" transform="matrix(1,0,0,1,672.3544029301725,1317.5700751782663) translate(43.91604938271607 64.0888888888889)"/><use xlink:href="#ad" transform="matrix(1,0,0,1,672.3544029301725,1317.5700751782663) translate(127.27222222222223 64.0888888888889)"/><use xlink:href="#ar" transform="matrix(1,0,0,1,672.3544029301725,1317.5700751782663) translate(164.67962962962963 64.0888888888889)"/><use xlink:href="#as" transform="matrix(1,0,0,1,672.3544029301725,1317.5700751782663) translate(11.527469135802505 91.02222222222223)"/><use xlink:href="#at" transform="matrix(1,0,0,1,672.3544029301725,1317.5700751782663) translate(153.30154320987654 91.02222222222223)"/><use xlink:href="#Z" transform="matrix(1,0,0,1,672.3544029301725,1317.5700751782663) translate(194.38734567901236 91.02222222222223)"/><use xlink:href="#au" transform="matrix(1,0,0,1,672.3544029301725,1317.5700751782663) translate(231.79475308641975 91.02222222222223)"/><use xlink:href="#G" transform="matrix(1,0,0,1,672.3544029301725,1317.5700751782663) translate(41.297530864197554 117.95555555555555)"/><use xlink:href="#av" transform="matrix(1,0,0,1,672.3544029301725,1317.5700751782663) translate(67.42037037037039 117.95555555555555)"/><use xlink:href="#aw" transform="matrix(1,0,0,1,672.3544029301725,1317.5700751782663) translate(140.86358024691359 117.95555555555555)"/><use xlink:href="#at" transform="matrix(1,0,0,1,672.3544029301725,1317.5700751782663) translate(209.4438271604938 117.95555555555555)"/><use xlink:href="#C" transform="matrix(1,0,0,1,672.3544029301725,1317.5700751782663) translate(250.5296296296296 117.95555555555555)"/><use xlink:href="#ax" transform="matrix(1,0,0,1,672.3544029301725,1317.5700751782663) translate(60.62469135802472 144.88888888888889)"/><use xlink:href="#R" transform="matrix(1,0,0,1,672.3544029301725,1317.5700751782663) translate(150.34012345679014 144.88888888888889)"/><use xlink:href="#ay" transform="matrix(1,0,0,1,672.3544029301725,1317.5700751782663) translate(182.69753086419752 144.88888888888889)"/></g><path d="M1001.1 1417.16h-.5" stroke="#333" fill="none"/><path d="M1001.12 1417.63h-.52v-.95h.52z" stroke="#333" stroke-width=".05" fill="#333"/><path d="M1012.1 1417.16l-14.25 4.63v-9.28z" stroke="#333" fill="#333"/><path d="M1014.23 1320.57a8 8 0 0 1 8-8h316.75a8 8 0 0 1 8 8v193.17a8 8 0 0 1-8 8h-316.75a8 8 0 0 1-8-8z" stroke="#333" fill="#fff"/><g><use xlink:href="#az" transform="matrix(1,0,0,1,1019.2329997964425,1317.5700751782658) translate(16.51512345679015 77.55555555555556)"/><use xlink:href="#ad" transform="matrix(1,0,0,1,1019.2329997964425,1317.5700751782658) translate(92.45216049382717 77.55555555555556)"/><use xlink:href="#as" transform="matrix(1,0,0,1,1019.2329997964425,1317.5700751782658) translate(129.85956790123456 77.55555555555556)"/><use xlink:href="#aA" transform="matrix(1,0,0,1,1019.2329997964425,1317.5700751782658) translate(271.6336419753086 77.55555555555556)"/><use xlink:href="#Z" transform="matrix(1,0,0,1,1019.2329997964425,1317.5700751782658) translate(55.07592592592596 104.48888888888888)"/><use xlink:href="#aB" transform="matrix(1,0,0,1,1019.2329997964425,1317.5700751782658) translate(92.48333333333335 104.48888888888888)"/><use xlink:href="#G" transform="matrix(1,0,0,1,1019.2329997964425,1317.5700751782658) translate(210.62839506172838 104.48888888888888)"/><use xlink:href="#C" transform="matrix(1,0,0,1,1019.2329997964425,1317.5700751782658) translate(236.7512345679012 104.48888888888888)"/><use xlink:href="#aC" transform="matrix(1,0,0,1,1019.2329997964425,1317.5700751782658) translate(104.89012345679014 131.42222222222222)"/></g><path d="M1347.98 1417.16h-.5" stroke="#333" fill="none"/><path d="M1348 1417.63h-.52v-.95h.5z" stroke="#333" stroke-width=".05" fill="#333"/><path d="M1359 1417.16l-14.27 4.63v-9.28z" stroke="#333" fill="#333"/><path d="M1361.1 1320.57a8 8 0 0 1 8-8h316.76a8 8 0 0 1 8 8v193.17a8 8 0 0 1-8 8H1369.1a8 8 0 0 1-8-8z" stroke="#333" fill="#fff"/><g><use xlink:href="#aq" transform="matrix(1,0,0,1,1366.1115966627124,1317.5700751782658) translate(12.8055555555556 77.55555555555556)"/><use xlink:href="#ad" transform="matrix(1,0,0,1,1366.1115966627124,1317.5700751782658) translate(96.16172839506176 77.55555555555556)"/><use xlink:href="#as" transform="matrix(1,0,0,1,1366.1115966627124,1317.5700751782658) translate(133.56913580246916 77.55555555555556)"/><use xlink:href="#aA" transform="matrix(1,0,0,1,1366.1115966627124,1317.5700751782658) translate(275.3432098765432 77.55555555555556)"/><use xlink:href="#Z" transform="matrix(1,0,0,1,1366.1115966627124,1317.5700751782658) translate(9.62592592592597 104.48888888888888)"/><use xlink:href="#Q" transform="matrix(1,0,0,1,1366.1115966627124,1317.5700751782658) translate(47.03333333333337 104.48888888888888)"/><use xlink:href="#G" transform="matrix(1,0,0,1,1366.1115966627124,1317.5700751782658) translate(132.9456790123457 104.48888888888888)"/><use xlink:href="#aD" transform="matrix(1,0,0,1,1366.1115966627124,1317.5700751782658) translate(159.06851851851852 104.48888888888888)"/><use xlink:href="#aE" transform="matrix(1,0,0,1,1366.1115966627124,1317.5700751782658) translate(278.52283950617283 104.48888888888888)"/><use xlink:href="#aF" transform="matrix(1,0,0,1,1366.1115966627124,1317.5700751782658) translate(125.99413580246915 131.42222222222222)"/></g><path d="M1527.5 1311.57V965" stroke="#333" fill="none"/><path d="M1527.96 1312.07h-.95v-.5h.96z" stroke="#333" stroke-width=".05" fill="#333"/><path d="M1527.5 950.24l4.62 14.26h-9.27z" stroke="#333" fill="#333"/><path d="M1361.1 746.95a8 8 0 0 1 8-8h316.76a8 8 0 0 1 8 8V940.1a8 8 0 0 1-8 8H1369.1a8 8 0 0 1-8-8z" stroke="#333" fill="#fff"/><g><use xlink:href="#J" transform="matrix(1,0,0,1,1366.1115966627126,743.9448294123232) translate(38.866049382716085 50.62222222222222)"/><use xlink:href="#v" transform="matrix(1,0,0,1,1366.1115966627126,743.9448294123232) translate(159.62962962962962 50.62222222222222)"/><use xlink:href="#au" transform="matrix(1,0,0,1,1366.1115966627126,743.9448294123232) translate(204.45617283950617 50.62222222222222)"/><use xlink:href="#af" transform="matrix(1,0,0,1,1366.1115966627126,743.9448294123232) translate(5.324074074074076 77.55555555555556)"/><use xlink:href="#ag" transform="matrix(1,0,0,1,1366.1115966627126,743.9448294123232) translate(83.69259259259259 77.55555555555556)"/><use xlink:href="#ah" transform="matrix(1,0,0,1,1366.1115966627126,743.9448294123232) translate(139.8037037037037 77.55555555555556)"/><use xlink:href="#ai" transform="matrix(1,0,0,1,1366.1115966627126,743.9448294123232) translate(173.34567901234567 77.55555555555556)"/><use xlink:href="#aG" transform="matrix(1,0,0,1,1366.1115966627126,743.9448294123232) translate(205.70308641975308 77.55555555555556)"/><use xlink:href="#aH" transform="matrix(1,0,0,1,1366.1115966627126,743.9448294123232) translate(277.8993827160494 77.55555555555556)"/><use xlink:href="#O" transform="matrix(1,0,0,1,1366.1115966627126,743.9448294123232) translate(2.7679012345679155 104.48888888888888)"/><use xlink:href="#al" transform="matrix(1,0,0,1,1366.1115966627126,743.9448294123232) translate(47.59444444444445 104.48888888888888)"/><use xlink:href="#aI" transform="matrix(1,0,0,1,1366.1115966627126,743.9448294123232) translate(154.5796296296296 104.48888888888888)"/><use xlink:href="#an" transform="matrix(1,0,0,1,1366.1115966627126,743.9448294123232) translate(193.17160493827157 104.48888888888888)"/><use xlink:href="#aJ" transform="matrix(1,0,0,1,1366.1115966627126,743.9448294123232) translate(294.10925925925926 104.48888888888888)"/><use xlink:href="#aK" transform="matrix(1,0,0,1,1366.1115966627126,743.9448294123232) translate(11.309259259259278 131.42222222222222)"/><use xlink:href="#aL" transform="matrix(1,0,0,1,1366.1115966627126,743.9448294123232) translate(90.98703703703704 131.42222222222222)"/><use xlink:href="#aM" transform="matrix(1,0,0,1,1366.1115966627126,743.9448294123232) translate(109.69074074074074 131.42222222222222)"/><use xlink:href="#O" transform="matrix(1,0,0,1,1366.1115966627126,743.9448294123232) translate(172.2858024691358 131.42222222222222)"/><use xlink:href="#aN" transform="matrix(1,0,0,1,1366.1115966627126,743.9448294123232) translate(217.11234567901235 131.42222222222222)"/><use xlink:href="#R" transform="matrix(1,0,0,1,1366.1115966627126,743.9448294123232) translate(96.16172839506174 158.35555555555553)"/><use xlink:href="#aO" transform="matrix(1,0,0,1,1366.1115966627126,743.9448294123232) translate(128.51913580246915 158.35555555555553)"/></g><path d="M1694.86 843.53h142.85a12 12 0 0 1 12 12v169.63a12 12 0 0 0 12 12h126.98" stroke="#333" fill="none"/><path d="M1694.87 844h-.5v-.94h.5z" stroke="#333" stroke-width=".05" fill="#333"/><path d="M2003.45 1037.16l-14.27 4.63v-9.28z" stroke="#333" fill="#333"/><path d="M2005.57 940.57a8 8 0 0 1 8-8h283.47a8 8 0 0 1 8 8v169.8c-50-29.7-81.16-29.7-100.03-29.7-29.93 0-69.76 29.7-99.7 29.7-18.58 0-50.02 0-99.74-29.7z" stroke="#333" fill="#fff"/><path d="M2022.2 956.26a8 8 0 0 1 8-8h283.48a8 8 0 0 1 8 8v169.8c-50-29.7-81.16-29.7-100.03-29.7-29.95 0-69.78 29.7-99.72 29.7-18.57 0-50 0-99.73-29.7z" stroke="#333" fill="#fff"/><path d="M2038.84 971.95a8 8 0 0 1 8-8h283.48a8 8 0 0 1 8 8v169.8c-50.02-29.7-81.16-29.7-100.03-29.7-29.96 0-69.8 29.7-99.74 29.7-18.56 0-50 0-99.72-29.7z" stroke="#333" fill="#fff"/><g><use xlink:href="#u" transform="matrix(1,0,0,1,2043.840330787107,968.94579455152) translate(20.526851851851887 73.98888888888888)"/><use xlink:href="#v" transform="matrix(1,0,0,1,2043.840330787107,968.94579455152) translate(79.00709876543212 73.98888888888888)"/><use xlink:href="#Q" transform="matrix(1,0,0,1,2043.840330787107,968.94579455152) translate(123.83364197530865 73.98888888888888)"/><use xlink:href="#aP" transform="matrix(1,0,0,1,2043.840330787107,968.94579455152) translate(209.74598765432097 73.98888888888888)"/></g><path d="M1694.86 843.53h142.85a12 12 0 0 0 12-12V689.16a12 12 0 0 1 12-12h126.98" stroke="#333" fill="none"/><path d="M1694.87 844h-.5v-.94h.5z" stroke="#333" stroke-width=".05" fill="#333"/><path d="M2003.45 677.16l-14.27 4.63v-9.28z" stroke="#333" fill="#333"/><path d="M2005.57 580.57a8 8 0 0 1 8-8h283.47a8 8 0 0 1 8 8v169.8c-50-29.7-81.16-29.7-100.03-29.7-29.93 0-69.76 29.7-99.7 29.7-18.58 0-50.02 0-99.74-29.7z" stroke="#333" fill="#fff"/><path d="M2022.2 596.26a8 8 0 0 1 8-8h283.48a8 8 0 0 1 8 8v169.8c-50-29.7-81.16-29.7-100.03-29.7-29.95 0-69.78 29.7-99.72 29.7-18.57 0-50 0-99.73-29.7z" stroke="#333" fill="#fff"/><path d="M2038.84 611.95a8 8 0 0 1 8-8h283.48a8 8 0 0 1 8 8v169.8c-50.02-29.7-81.16-29.7-100.03-29.7-29.96 0-69.8 29.7-99.74 29.7-18.56 0-50 0-99.72-29.7z" stroke="#333" fill="#fff"/><g><use xlink:href="#u" transform="matrix(1,0,0,1,2043.840330787107,608.9457945515198) translate(37.391358024691385 60.522222222222226)"/><use xlink:href="#v" transform="matrix(1,0,0,1,2043.840330787107,608.9457945515198) translate(95.87160493827162 60.522222222222226)"/><use xlink:href="#aQ" transform="matrix(1,0,0,1,2043.840330787107,608.9457945515198) translate(140.69814814814816 60.522222222222226)"/><use xlink:href="#aR" transform="matrix(1,0,0,1,2043.840330787107,608.9457945515198) translate(3.6935185185185446 87.45555555555555)"/><use xlink:href="#O" transform="matrix(1,0,0,1,2043.840330787107,608.9457945515198) translate(95.84043209876545 87.45555555555555)"/><use xlink:href="#Q" transform="matrix(1,0,0,1,2043.840330787107,608.9457945515198) translate(140.66697530864198 87.45555555555555)"/><use xlink:href="#aP" transform="matrix(1,0,0,1,2043.840330787107,608.9457945515198) translate(226.57932098765428 87.45555555555555)"/></g><path d="M1527.5 559.3v162.76" stroke="#333" fill="none"/><path d="M1527.96 559.3h-.95v-.5h.96z" stroke="#333" stroke-width=".05" fill="#333"/><path d="M1527.5 736.83l-4.65-14.27h9.27z" stroke="#333" fill="#333"/><defs><path fill="#333" d="M230 0l2-204L168 0h-37L68-204 70 0H24v-248h70l56 185 57-185h69V0h-46" id="aS"/><path fill="#333" d="M185-48c-13 30-37 53-82 52C43 2 14-33 14-96s30-98 90-98c62 0 83 45 84 108H66c0 31 8 55 39 56 18 0 30-7 34-22zm-45-69c5-46-57-63-70-21-2 6-4 13-4 21h74zm-67-91v-5l45-51h45v8l-60 48H73" id="aT"/><path fill="#333" d="M115-3C79 11 28 4 28-45v-112H4v-33h27l15-45h31v45h36v33H77v99c-1 23 16 31 38 25v30" id="aU"/><path fill="#333" d="M114-157C55-157 80-60 75 0H25v-261h50l-1 109c12-26 28-41 61-42 86-1 58 113 63 194h-50c-7-57 23-157-34-157" id="aV"/><path fill="#333" d="M110-194c64 0 96 36 96 99 0 64-35 99-97 99-61 0-95-36-95-99 0-62 34-99 96-99zm-1 164c35 0 45-28 45-65 0-40-10-65-43-65-34 0-45 26-45 65 0 36 10 65 43 65" id="aW"/><path fill="#333" d="M88-194c31-1 46 15 58 34l-1-101h50l1 261h-48c-2-10 0-23-3-31C134-8 116 4 84 4 32 4 16-41 15-95c0-56 19-97 73-99zm17 164c33 0 40-30 41-66 1-37-9-64-41-64s-38 30-39 65c0 43 13 65 39 65" id="aX"/><path fill="#333" d="M25 0v-261h50V0H25" id="aY"/><path fill="#333" d="M195-6C206 82 75 100 31 46c-4-6-6-13-8-21l49-6c3 16 16 24 34 25 40 0 42-37 40-79-11 22-30 35-61 35-53 0-70-43-70-97 0-56 18-96 73-97 30 0 46 14 59 34l2-30h47zm-90-29c32 0 41-27 41-63 0-35-9-62-40-62-32 0-39 29-40 63 0 36 9 62 39 62" id="aZ"/><path fill="#333" d="M25-224v-37h50v37H25zM25 0v-190h50V0H25" id="ba"/><path fill="#333" d="M185-48c-13 30-37 53-82 52C43 2 14-33 14-96s30-98 90-98c62 0 83 45 84 108H66c0 31 8 55 39 56 18 0 30-7 34-22zm-45-69c5-46-57-63-70-21-2 6-4 13-4 21h74" id="bb"/><g id="a"><use transform="matrix(0.0728395061728395,0,0,0.0728395061728395,0,0)" xlink:href="#aS"/><use transform="matrix(0.0728395061728395,0,0,0.0728395061728395,21.77901234567901,0)" xlink:href="#aT"/><use transform="matrix(0.0728395061728395,0,0,0.0728395061728395,36.34691358024691,0)" xlink:href="#aU"/><use transform="matrix(0.0728395061728395,0,0,0.0728395061728395,45.01481481481481,0)" xlink:href="#aV"/><use transform="matrix(0.0728395061728395,0,0,0.0728395061728395,60.966666666666654,0)" xlink:href="#aW"/><use transform="matrix(0.0728395061728395,0,0,0.0728395061728395,76.91851851851851,0)" xlink:href="#aX"/><use transform="matrix(0.0728395061728395,0,0,0.0728395061728395,92.87037037037037,0)" xlink:href="#aW"/><use transform="matrix(0.0728395061728395,0,0,0.0728395061728395,108.82222222222222,0)" xlink:href="#aY"/><use transform="matrix(0.0728395061728395,0,0,0.0728395061728395,116.10617283950617,0)" xlink:href="#aW"/><use transform="matrix(0.0728395061728395,0,0,0.0728395061728395,132.058024691358,0)" xlink:href="#aZ"/><use transform="matrix(0.0728395061728395,0,0,0.0728395061728395,148.00987654320986,0)" xlink:href="#ba"/><use transform="matrix(0.0728395061728395,0,0,0.0728395061728395,155.2938271604938,0)" xlink:href="#bb"/></g><g id="b"><use transform="matrix(0.0728395061728395,0,0,0.0728395061728395,0,0)" xlink:href="#aX"/><use transform="matrix(0.0728395061728395,0,0,0.0728395061728395,15.95185185185185,0)" xlink:href="#bb"/></g><path fill="#333" d="M133-34C117-15 103 5 69 4 32 3 11-16 11-54c-1-60 55-63 116-61 1-26-3-47-28-47-18 1-26 9-28 27l-52-2c7-38 36-58 82-57s74 22 75 68l1 82c-1 14 12 18 25 15v27c-30 8-71 5-69-32zm-48 3c29 0 43-24 42-57-32 0-66-3-65 30 0 17 8 27 23 27" id="bc"/><g id="c"><use transform="matrix(0.0728395061728395,0,0,0.0728395061728395,0,0)" xlink:href="#aY"/><use transform="matrix(0.0728395061728395,0,0,0.0728395061728395,7.28395061728395,0)" xlink:href="#bc"/></g><path fill="#333" d="M135-150c-39-12-60 13-60 57V0H25l-1-190h47c2 13-1 29 3 40 6-28 27-53 61-41v41" id="bd"/><path fill="#333" d="M190-63c-7 42-38 67-86 67-59 0-84-38-90-98-12-110 154-137 174-36l-49 2c-2-19-15-32-35-32-30 0-35 28-38 64-6 74 65 87 74 30" id="be"/><g id="d"><use transform="matrix(0.0728395061728395,0,0,0.0728395061728395,0,0)" xlink:href="#bd"/><use transform="matrix(0.0728395061728395,0,0,0.0728395061728395,10.19753086419753,0)" xlink:href="#bb"/><use transform="matrix(0.0728395061728395,0,0,0.0728395061728395,24.76543209876543,0)" xlink:href="#be"/><use transform="matrix(0.0728395061728395,0,0,0.0728395061728395,39.333333333333336,0)" xlink:href="#aV"/><use transform="matrix(0.0728395061728395,0,0,0.0728395061728395,55.28518518518518,0)" xlink:href="#bb"/><use transform="matrix(0.0728395061728395,0,0,0.0728395061728395,69.85308641975308,0)" xlink:href="#bd"/><use transform="matrix(0.0728395061728395,0,0,0.0728395061728395,80.05061728395061,0)" xlink:href="#be"/><use transform="matrix(0.0728395061728395,0,0,0.0728395061728395,94.61851851851851,0)" xlink:href="#aV"/><use transform="matrix(0.0728395061728395,0,0,0.0728395061728395,110.57037037037037,0)" xlink:href="#bb"/></g><path fill="#333" d="M137-138c1-29-70-34-71-4 15 46 118 7 119 86 1 83-164 76-172 9l43-7c4 19 20 25 44 25 33 8 57-30 24-41C81-84 22-81 20-136c-2-80 154-74 161-7" id="bf"/><g id="e"><use transform="matrix(0.0728395061728395,0,0,0.0728395061728395,0,0)" xlink:href="#aX"/><use transform="matrix(0.0728395061728395,0,0,0.0728395061728395,15.95185185185185,0)" xlink:href="#bb"/><use transform="matrix(0.0728395061728395,0,0,0.0728395061728395,30.51975308641975,0)" xlink:href="#bf"/></g><path fill="#333" d="M135-194c52 0 70 43 70 98 0 56-19 99-73 100-30 1-46-15-58-35L72 0H24l1-261h50v104c11-23 29-37 60-37zM114-30c31 0 40-27 40-66 0-37-7-63-39-63s-41 28-41 65c0 36 8 64 40 64" id="bg"/><path fill="#333" d="M128 0H69L1-190h53L99-40l48-150h52" id="bh"/><g id="f"><use transform="matrix(0.0728395061728395,0,0,0.0728395061728395,0,0)" xlink:href="#bg"/><use transform="matrix(0.0728395061728395,0,0,0.0728395061728395,15.95185185185185,0)" xlink:href="#bd"/><use transform="matrix(0.0728395061728395,0,0,0.0728395061728395,26.14938271604938,0)" xlink:href="#bb"/><use transform="matrix(0.0728395061728395,0,0,0.0728395061728395,40.717283950617286,0)" xlink:href="#bh"/><use transform="matrix(0.0728395061728395,0,0,0.0728395061728395,55.28518518518518,0)" xlink:href="#bb"/><use transform="matrix(0.0728395061728395,0,0,0.0728395061728395,69.85308641975308,0)" xlink:href="#aU"/><use transform="matrix(0.0728395061728395,0,0,0.0728395061728395,78.52098765432099,0)" xlink:href="#bf"/></g><g id="g"><use transform="matrix(0.0728395061728395,0,0,0.0728395061728395,0,0)" xlink:href="#aX"/><use transform="matrix(0.0728395061728395,0,0,0.0728395061728395,15.95185185185185,0)" xlink:href="#bb"/></g><g id="h"><use transform="matrix(0.0728395061728395,0,0,0.0728395061728395,0,0)" xlink:href="#bg"/><use transform="matrix(0.0728395061728395,0,0,0.0728395061728395,15.95185185185185,0)" xlink:href="#bc"/><use transform="matrix(0.0728395061728395,0,0,0.0728395061728395,30.51975308641975,0)" xlink:href="#bf"/><use transform="matrix(0.0728395061728395,0,0,0.0728395061728395,45.08765432098765,0)" xlink:href="#bb"/></g><path fill="#333" d="M24-248c93 1 206-16 204 79-1 75-69 88-152 82V0H24v-248zm52 121c47 0 100 7 100-41 0-47-54-39-100-39v80" id="bi"/><path fill="#333" d="M199 0l-22-63H83L61 0H9l90-248h61L250 0h-51zm-33-102l-36-108c-10 38-24 72-36 108h72" id="bj"/><path fill="#333" d="M136-208V0H84v-208H4v-40h212v40h-80" id="bk"/><path fill="#333" d="M169-182c-1-43-94-46-97-3 18 66 151 10 154 114 3 95-165 93-204 36-6-8-10-19-12-30l50-8c3 46 112 56 116 5-17-69-150-10-154-114-4-87 153-88 188-35 5 8 8 18 10 28" id="bl"/><g id="i"><use transform="matrix(0.0728395061728395,0,0,0.0728395061728395,0,0)" xlink:href="#bi"/><use transform="matrix(0.0728395061728395,0,0,0.0728395061728395,15.514814814814814,0)" xlink:href="#bj"/><use transform="matrix(0.0728395061728395,0,0,0.0728395061728395,32.41358024691358,0)" xlink:href="#bk"/><use transform="matrix(0.0728395061728395,0,0,0.0728395061728395,48.36543209876543,0)" xlink:href="#bl"/><use transform="matrix(0.0728395061728395,0,0,0.0728395061728395,65.8469135802469,0)" xlink:href="#bj"/><use transform="matrix(0.0728395061728395,0,0,0.0728395061728395,82.74567901234568,0)" xlink:href="#bk"/></g><path fill="#333" d="M135-194c87-1 58 113 63 194h-50c-7-57 23-157-34-157-59 0-34 97-39 157H25l-1-190h47c2 12-1 28 3 38 12-26 28-41 61-42" id="bm"/><g id="j"><use transform="matrix(0.0728395061728395,0,0,0.0728395061728395,0,0)" xlink:href="#be"/><use transform="matrix(0.0728395061728395,0,0,0.0728395061728395,14.5679012345679,0)" xlink:href="#ba"/><use transform="matrix(0.0728395061728395,0,0,0.0728395061728395,21.85185185185185,0)" xlink:href="#aU"/><use transform="matrix(0.0728395061728395,0,0,0.0728395061728395,30.51975308641975,0)" xlink:href="#bc"/><use transform="matrix(0.0728395061728395,0,0,0.0728395061728395,45.08765432098765,0)" xlink:href="#bm"/><use transform="matrix(0.0728395061728395,0,0,0.0728395061728395,61.0395061728395,0)" xlink:href="#aU"/></g><path fill="#333" d="M135-194c53 0 70 44 70 98 0 56-19 98-73 100-31 1-45-17-59-34 3 33 2 69 2 105H25l-1-265h48c2 10 0 23 3 31 11-24 29-35 60-35zM114-30c33 0 39-31 40-66 0-38-9-64-40-64-56 0-55 130 0 130" id="bn"/><path fill="#333" d="M85 4C-2 5 27-109 22-190h50c7 57-23 150 33 157 60-5 35-97 40-157h50l1 190h-47c-2-12 1-28-3-38-12 25-28 42-61 42" id="bo"/><g id="k"><use transform="matrix(0.0728395061728395,0,0,0.0728395061728395,0,0)" xlink:href="#bn"/><use transform="matrix(0.0728395061728395,0,0,0.0728395061728395,15.95185185185185,0)" xlink:href="#bo"/><use transform="matrix(0.0728395061728395,0,0,0.0728395061728395,31.9037037037037,0)" xlink:href="#bg"/><use transform="matrix(0.0728395061728395,0,0,0.0728395061728395,47.855555555555554,0)" xlink:href="#aY"/><use transform="matrix(0.0728395061728395,0,0,0.0728395061728395,55.1395061728395,0)" xlink:href="#ba"/><use transform="matrix(0.0728395061728395,0,0,0.0728395061728395,62.42345679012345,0)" xlink:href="#be"/><use transform="matrix(0.0728395061728395,0,0,0.0728395061728395,76.99135802469135,0)" xlink:href="#bc"/><use transform="matrix(0.0728395061728395,0,0,0.0728395061728395,91.55925925925926,0)" xlink:href="#aU"/><use transform="matrix(0.0728395061728395,0,0,0.0728395061728395,100.22716049382716,0)" xlink:href="#ba"/><use transform="matrix(0.0728395061728395,0,0,0.0728395061728395,107.5111111111111,0)" xlink:href="#aW"/><use transform="matrix(0.0728395061728395,0,0,0.0728395061728395,123.46296296296296,0)" xlink:href="#bm"/><use transform="matrix(0.0728395061728395,0,0,0.0728395061728395,139.4148148148148,0)" xlink:href="#bf"/></g><path fill="#333" d="M121-226c-27-7-43 5-38 36h38v33H83V0H34v-157H6v-33h28c-9-59 32-81 87-68v32" id="bp"/><path fill="#333" d="M190-63c-7 42-38 67-86 67-59 0-84-38-90-98-12-110 154-137 174-36l-49 2c-2-19-15-32-35-32-30 0-35 28-38 64-6 74 65 87 74 30zm-84 77c20 1 33 9 33 27 0 32-36 36-71 33V53c15 1 39 4 39-11 0-13-16-12-31-12L87 0h25" id="bq"/><g id="l"><use transform="matrix(0.0728395061728395,0,0,0.0728395061728395,0,0)" xlink:href="#bp"/><use transform="matrix(0.0728395061728395,0,0,0.0728395061728395,8.667901234567902,0)" xlink:href="#bd"/><use transform="matrix(0.0728395061728395,0,0,0.0728395061728395,18.86543209876543,0)" xlink:href="#bc"/><use transform="matrix(0.0728395061728395,0,0,0.0728395061728395,33.43333333333333,0)" xlink:href="#bm"/><use transform="matrix(0.0728395061728395,0,0,0.0728395061728395,49.38518518518518,0)" xlink:href="#bq"/><use transform="matrix(0.0728395061728395,0,0,0.0728395061728395,63.95308641975308,0)" xlink:href="#bc"/><use transform="matrix(0.0728395061728395,0,0,0.0728395061728395,78.52098765432098,0)" xlink:href="#ba"/><use transform="matrix(0.0728395061728395,0,0,0.0728395061728395,85.80493827160493,0)" xlink:href="#bf"/><use transform="matrix(0.0728395061728395,0,0,0.0728395061728395,100.37283950617282,0)" xlink:href="#bb"/><use transform="matrix(0.0728395061728395,0,0,0.0728395061728395,114.94074074074072,0)" xlink:href="#bf"/></g><g id="m"><use transform="matrix(0.0728395061728395,0,0,0.0728395061728395,0,0)" xlink:href="#bn"/><use transform="matrix(0.0728395061728395,0,0,0.0728395061728395,15.95185185185185,0)" xlink:href="#bd"/><use transform="matrix(0.0728395061728395,0,0,0.0728395061728395,26.14938271604938,0)" xlink:href="#aT"/><use transform="matrix(0.0728395061728395,0,0,0.0728395061728395,40.717283950617286,0)" xlink:href="#bf"/><use transform="matrix(0.0728395061728395,0,0,0.0728395061728395,55.28518518518518,0)" xlink:href="#bb"/><use transform="matrix(0.0728395061728395,0,0,0.0728395061728395,69.85308641975308,0)" xlink:href="#bm"/><use transform="matrix(0.0728395061728395,0,0,0.0728395061728395,85.80493827160494,0)" xlink:href="#aU"/><use transform="matrix(0.0728395061728395,0,0,0.0728395061728395,94.47283950617286,0)" xlink:href="#bb"/><use transform="matrix(0.0728395061728395,0,0,0.0728395061728395,109.04074074074074,0)" xlink:href="#bf"/></g><g id="n"><use transform="matrix(0.0728395061728395,0,0,0.0728395061728395,0,0)" xlink:href="#aX"/><use transform="matrix(0.0728395061728395,0,0,0.0728395061728395,15.95185185185185,0)" xlink:href="#bc"/><use transform="matrix(0.0728395061728395,0,0,0.0728395061728395,30.51975308641975,0)" xlink:href="#bm"/><use transform="matrix(0.0728395061728395,0,0,0.0728395061728395,46.471604938271604,0)" xlink:href="#bf"/></g><g id="o"><use transform="matrix(0.0728395061728395,0,0,0.0728395061728395,0,0)" xlink:href="#aY"/><use transform="matrix(0.0728395061728395,0,0,0.0728395061728395,7.28395061728395,0)" xlink:href="#bb"/><use transform="matrix(0.0728395061728395,0,0,0.0728395061728395,21.85185185185185,0)" xlink:href="#bf"/></g><g id="p"><use transform="matrix(0.0728395061728395,0,0,0.0728395061728395,0,0)" xlink:href="#bd"/><use transform="matrix(0.0728395061728395,0,0,0.0728395061728395,10.19753086419753,0)" xlink:href="#bc"/><use transform="matrix(0.0728395061728395,0,0,0.0728395061728395,24.76543209876543,0)" xlink:href="#bn"/><use transform="matrix(0.0728395061728395,0,0,0.0728395061728395,40.717283950617286,0)" xlink:href="#bn"/><use transform="matrix(0.0728395061728395,0,0,0.0728395061728395,56.66913580246913,0)" xlink:href="#aW"/><use transform="matrix(0.0728395061728395,0,0,0.0728395061728395,72.62098765432098,0)" xlink:href="#bd"/><use transform="matrix(0.0728395061728395,0,0,0.0728395061728395,82.81851851851852,0)" xlink:href="#aU"/><use transform="matrix(0.0728395061728395,0,0,0.0728395061728395,91.48641975308642,0)" xlink:href="#bf"/></g><g id="q"><use transform="matrix(0.0728395061728395,0,0,0.0728395061728395,0,0)" xlink:href="#aX"/><use transform="matrix(0.0728395061728395,0,0,0.0728395061728395,15.95185185185185,0)" xlink:href="#bo"/></g><path fill="#333" d="M67-125c0 54 23 88 75 88 28 0 53-7 68-21v-34h-60v-39h108v91C232-14 192 4 140 4 58 4 20-42 15-125 8-236 126-280 215-234c19 10 29 26 37 47l-47 15c-11-23-29-39-63-39-53 1-75 33-75 86" id="br"/><path fill="#333" d="M24 0v-248h52V0H24" id="bs"/><path fill="#333" d="M24 0v-248h195v40H76v63h132v40H76v65h150V0H24" id="bt"/><path fill="#333" d="M67-125c0 53 21 87 73 88 37 1 54-22 65-47l45 17C233-25 199 4 140 4 58 4 20-42 15-125 8-235 124-281 211-232c18 10 29 29 36 50l-46 12c-8-25-30-41-62-41-52 0-71 34-72 86" id="bu"/><g id="r"><use transform="matrix(0.0728395061728395,0,0,0.0728395061728395,0,0)" xlink:href="#br"/><use transform="matrix(0.0728395061728395,0,0,0.0728395061728395,20.39506172839506,0)" xlink:href="#bs"/><use transform="matrix(0.0728395061728395,0,0,0.0728395061728395,27.67901234567901,0)" xlink:href="#bt"/><use transform="matrix(0.0728395061728395,0,0,0.0728395061728395,45.160493827160494,0)" xlink:href="#bu"/></g><g id="s"><use transform="matrix(0.0728395061728395,0,0,0.0728395061728395,0,0)" xlink:href="#bb"/><use transform="matrix(0.0728395061728395,0,0,0.0728395061728395,14.5679012345679,0)" xlink:href="#aU"/></g><path fill="#333" d="M62-158H24l-5-90h48" id="bv"/><path fill="#333" d="M182-130c37 4 62 22 62 59C244 23 116-4 24 0v-248c84 5 203-23 205 63 0 31-19 50-47 55zM76-148c40-3 101 13 101-30 0-44-60-28-101-31v61zm0 110c48-3 116 14 116-37 0-48-69-32-116-35v72" id="bw"/><g id="t"><use transform="matrix(0.0728395061728395,0,0,0.0728395061728395,0,0)" xlink:href="#aY"/><use transform="matrix(0.0728395061728395,0,0,0.0728395061728395,7.28395061728395,0)" xlink:href="#bv"/><use transform="matrix(0.0728395061728395,0,0,0.0728395061728395,13.475308641975307,0)" xlink:href="#bs"/><use transform="matrix(0.0728395061728395,0,0,0.0728395061728395,20.759259259259256,0)" xlink:href="#bi"/><use transform="matrix(0.0728395061728395,0,0,0.0728395061728395,38.24074074074073,0)" xlink:href="#bw"/><use transform="matrix(0.0728395061728395,0,0,0.0728395061728395,57.106172839506165,0)" xlink:href="#bt"/><use transform="matrix(0.0728395061728395,0,0,0.0728395061728395,74.58765432098764,0)" xlink:href="#bl"/></g><path fill="#333" d="M24 0v-248h52v208h133V0H24" id="bx"/><g id="u"><use transform="matrix(0.06234567901234567,0,0,0.06234567901234567,0,0)" xlink:href="#bx"/><use transform="matrix(0.06234567901234567,0,0,0.06234567901234567,13.653703703703702,0)" xlink:href="#ba"/><use transform="matrix(0.06234567901234567,0,0,0.06234567901234567,19.888271604938268,0)" xlink:href="#bf"/><use transform="matrix(0.06234567901234567,0,0,0.06234567901234567,32.3574074074074,0)" xlink:href="#aU"/><use transform="matrix(0.06234567901234567,0,0,0.06234567901234567,39.776543209876536,0)" xlink:href="#bb"/></g><g id="v"><use transform="matrix(0.06234567901234567,0,0,0.06234567901234567,0,0)" xlink:href="#aX"/><use transform="matrix(0.06234567901234567,0,0,0.06234567901234567,13.653703703703702,0)" xlink:href="#bb"/><use transform="matrix(0.06234567901234567,0,0,0.06234567901234567,26.122839506172834,0)" xlink:href="#bf"/></g><path fill="#333" d="M24-248c120-7 223 5 221 122C244-46 201 0 124 0H24v-248zM76-40c74 7 117-18 117-86 0-67-45-88-117-82v168" id="by"/><path fill="#333" d="M140-251c80 0 125 45 125 126S219 4 139 4C58 4 15-44 15-125s44-126 125-126zm-1 214c52 0 73-35 73-88 0-50-21-86-72-86-52 0-73 35-73 86s22 88 72 88" id="bz"/><g id="w"><use transform="matrix(0.06234567901234567,0,0,0.06234567901234567,0,0)" xlink:href="#by"/><use transform="matrix(0.06234567901234567,0,0,0.06234567901234567,16.147530864197527,0)" xlink:href="#bz"/><use transform="matrix(0.06234567901234567,0,0,0.06234567901234567,33.60432098765432,0)" xlink:href="#bs"/></g><g id="x"><use transform="matrix(0.06234567901234567,0,0,0.06234567901234567,0,0)" xlink:href="#aX"/><use transform="matrix(0.06234567901234567,0,0,0.06234567901234567,13.653703703703702,0)" xlink:href="#bb"/><use transform="matrix(0.06234567901234567,0,0,0.06234567901234567,26.122839506172834,0)" xlink:href="#bf"/></g><g id="y"><use transform="matrix(0.06234567901234567,0,0,0.06234567901234567,0,0)" xlink:href="#bn"/><use transform="matrix(0.06234567901234567,0,0,0.06234567901234567,13.653703703703702,0)" xlink:href="#bo"/><use transform="matrix(0.06234567901234567,0,0,0.06234567901234567,27.307407407407403,0)" xlink:href="#bg"/><use transform="matrix(0.06234567901234567,0,0,0.06234567901234567,40.96111111111111,0)" xlink:href="#aY"/><use transform="matrix(0.06234567901234567,0,0,0.06234567901234567,47.19567901234568,0)" xlink:href="#ba"/><use transform="matrix(0.06234567901234567,0,0,0.06234567901234567,53.43024691358025,0)" xlink:href="#be"/><use transform="matrix(0.06234567901234567,0,0,0.06234567901234567,65.89938271604939,0)" xlink:href="#bc"/><use transform="matrix(0.06234567901234567,0,0,0.06234567901234567,78.36851851851853,0)" xlink:href="#aU"/><use transform="matrix(0.06234567901234567,0,0,0.06234567901234567,85.78765432098766,0)" xlink:href="#ba"/><use transform="matrix(0.06234567901234567,0,0,0.06234567901234567,92.02222222222223,0)" xlink:href="#aW"/><use transform="matrix(0.06234567901234567,0,0,0.06234567901234567,105.67592592592592,0)" xlink:href="#bm"/><use transform="matrix(0.06234567901234567,0,0,0.06234567901234567,119.32962962962962,0)" xlink:href="#bf"/></g><g id="z"><use transform="matrix(0.06234567901234567,0,0,0.06234567901234567,0,0)" xlink:href="#bp"/><use transform="matrix(0.06234567901234567,0,0,0.06234567901234567,7.4191358024691345,0)" xlink:href="#bd"/><use transform="matrix(0.06234567901234567,0,0,0.06234567901234567,16.147530864197527,0)" xlink:href="#bc"/><use transform="matrix(0.06234567901234567,0,0,0.06234567901234567,28.61666666666666,0)" xlink:href="#bm"/><use transform="matrix(0.06234567901234567,0,0,0.06234567901234567,42.27037037037036,0)" xlink:href="#bq"/><use transform="matrix(0.06234567901234567,0,0,0.06234567901234567,54.73950617283949,0)" xlink:href="#bc"/><use transform="matrix(0.06234567901234567,0,0,0.06234567901234567,67.20864197530862,0)" xlink:href="#ba"/><use transform="matrix(0.06234567901234567,0,0,0.06234567901234567,73.4432098765432,0)" xlink:href="#bf"/><use transform="matrix(0.06234567901234567,0,0,0.06234567901234567,85.91234567901233,0)" xlink:href="#bb"/><use transform="matrix(0.06234567901234567,0,0,0.06234567901234567,98.38148148148147,0)" xlink:href="#bf"/></g><g id="A"><use transform="matrix(0.06234567901234567,0,0,0.06234567901234567,0,0)" xlink:href="#bn"/><use transform="matrix(0.06234567901234567,0,0,0.06234567901234567,13.653703703703702,0)" xlink:href="#bd"/><use transform="matrix(0.06234567901234567,0,0,0.06234567901234567,22.382098765432097,0)" xlink:href="#aT"/><use transform="matrix(0.06234567901234567,0,0,0.06234567901234567,34.85123456790123,0)" xlink:href="#bf"/><use transform="matrix(0.06234567901234567,0,0,0.06234567901234567,47.32037037037036,0)" xlink:href="#bb"/><use transform="matrix(0.06234567901234567,0,0,0.06234567901234567,59.789506172839495,0)" xlink:href="#bm"/><use transform="matrix(0.06234567901234567,0,0,0.06234567901234567,73.4432098765432,0)" xlink:href="#aU"/><use transform="matrix(0.06234567901234567,0,0,0.06234567901234567,80.86234567901232,0)" xlink:href="#bb"/><use transform="matrix(0.06234567901234567,0,0,0.06234567901234567,93.33148148148146,0)" xlink:href="#bf"/></g><g id="B"><use transform="matrix(0.06234567901234567,0,0,0.06234567901234567,0,0)" xlink:href="#aX"/><use transform="matrix(0.06234567901234567,0,0,0.06234567901234567,13.653703703703702,0)" xlink:href="#bc"/><use transform="matrix(0.06234567901234567,0,0,0.06234567901234567,26.122839506172834,0)" xlink:href="#bm"/><use transform="matrix(0.06234567901234567,0,0,0.06234567901234567,39.776543209876536,0)" xlink:href="#bf"/></g><g id="C"><use transform="matrix(0.06234567901234567,0,0,0.06234567901234567,0,0)" xlink:href="#aY"/><use transform="matrix(0.06234567901234567,0,0,0.06234567901234567,6.234567901234566,0)" xlink:href="#bb"/><use transform="matrix(0.06234567901234567,0,0,0.06234567901234567,18.7037037037037,0)" xlink:href="#bf"/></g><g id="D"><use transform="matrix(0.06234567901234567,0,0,0.06234567901234567,0,0)" xlink:href="#bd"/><use transform="matrix(0.06234567901234567,0,0,0.06234567901234567,8.728395061728394,0)" xlink:href="#bc"/><use transform="matrix(0.06234567901234567,0,0,0.06234567901234567,21.197530864197525,0)" xlink:href="#bn"/><use transform="matrix(0.06234567901234567,0,0,0.06234567901234567,34.85123456790123,0)" xlink:href="#bn"/><use transform="matrix(0.06234567901234567,0,0,0.06234567901234567,48.50493827160493,0)" xlink:href="#aW"/><use transform="matrix(0.06234567901234567,0,0,0.06234567901234567,62.158641975308626,0)" xlink:href="#bd"/><use transform="matrix(0.06234567901234567,0,0,0.06234567901234567,70.88703703703702,0)" xlink:href="#aU"/><use transform="matrix(0.06234567901234567,0,0,0.06234567901234567,78.30617283950615,0)" xlink:href="#bf"/></g><g id="E"><use transform="matrix(0.06234567901234567,0,0,0.06234567901234567,0,0)" xlink:href="#aX"/><use transform="matrix(0.06234567901234567,0,0,0.06234567901234567,13.653703703703702,0)" xlink:href="#bo"/></g><g id="F"><use transform="matrix(0.06234567901234567,0,0,0.06234567901234567,0,0)" xlink:href="#br"/><use transform="matrix(0.06234567901234567,0,0,0.06234567901234567,17.456790123456788,0)" xlink:href="#bs"/><use transform="matrix(0.06234567901234567,0,0,0.06234567901234567,23.691358024691354,0)" xlink:href="#bt"/><use transform="matrix(0.06234567901234567,0,0,0.06234567901234567,38.654320987654316,0)" xlink:href="#bu"/></g><g id="G"><use transform="matrix(0.06234567901234567,0,0,0.06234567901234567,0,0)" xlink:href="#bb"/><use transform="matrix(0.06234567901234567,0,0,0.06234567901234567,12.469135802469133,0)" xlink:href="#aU"/></g><g id="H"><use transform="matrix(0.06234567901234567,0,0,0.06234567901234567,0,0)" xlink:href="#aX"/><use transform="matrix(0.06234567901234567,0,0,0.06234567901234567,13.653703703703702,0)" xlink:href="#bb"/></g><g id="I"><use transform="matrix(0.06234567901234567,0,0,0.06234567901234567,0,0)" xlink:href="#aY"/><use transform="matrix(0.06234567901234567,0,0,0.06234567901234567,6.234567901234566,0)" xlink:href="#bv"/><use transform="matrix(0.06234567901234567,0,0,0.06234567901234567,11.53395061728395,0)" xlink:href="#bs"/><use transform="matrix(0.06234567901234567,0,0,0.06234567901234567,17.768518518518515,0)" xlink:href="#bi"/><use transform="matrix(0.06234567901234567,0,0,0.06234567901234567,32.731481481481474,0)" xlink:href="#bw"/><use transform="matrix(0.06234567901234567,0,0,0.06234567901234567,48.879012345679,0)" xlink:href="#bt"/><use transform="matrix(0.06234567901234567,0,0,0.06234567901234567,63.84197530864196,0)" xlink:href="#bl"/></g><path fill="#333" d="M240-174c0 40-23 61-54 70L253 0h-59l-57-94H76V0H24v-248c93 4 217-23 216 74zM76-134c48-2 112 12 112-38 0-48-66-32-112-35v73" id="bA"/><g id="J"><use transform="matrix(0.06234567901234567,0,0,0.06234567901234567,0,0)" xlink:href="#bA"/><use transform="matrix(0.06234567901234567,0,0,0.06234567901234567,16.147530864197527,0)" xlink:href="#bb"/><use transform="matrix(0.06234567901234567,0,0,0.06234567901234567,28.61666666666666,0)" xlink:href="#be"/><use transform="matrix(0.06234567901234567,0,0,0.06234567901234567,41.08580246913579,0)" xlink:href="#aV"/><use transform="matrix(0.06234567901234567,0,0,0.06234567901234567,54.7395061728395,0)" xlink:href="#bb"/><use transform="matrix(0.06234567901234567,0,0,0.06234567901234567,67.20864197530864,0)" xlink:href="#bd"/><use transform="matrix(0.06234567901234567,0,0,0.06234567901234567,75.93703703703703,0)" xlink:href="#be"/><use transform="matrix(0.06234567901234567,0,0,0.06234567901234567,88.40617283950616,0)" xlink:href="#aV"/><use transform="matrix(0.06234567901234567,0,0,0.06234567901234567,102.05987654320985,0)" xlink:href="#bb"/></g><g id="K"><use transform="matrix(0.06234567901234567,0,0,0.06234567901234567,0,0)" xlink:href="#aX"/><use transform="matrix(0.06234567901234567,0,0,0.06234567901234567,13.653703703703702,0)" xlink:href="#bb"/></g><g id="L"><use transform="matrix(0.06234567901234567,0,0,0.06234567901234567,0,0)" xlink:href="#be"/><use transform="matrix(0.06234567901234567,0,0,0.06234567901234567,12.469135802469133,0)" xlink:href="#bb"/><use transform="matrix(0.06234567901234567,0,0,0.06234567901234567,24.938271604938265,0)" xlink:href="#bf"/></g><g id="M"><use transform="matrix(0.06234567901234567,0,0,0.06234567901234567,0,0)" xlink:href="#aY"/><use transform="matrix(0.06234567901234567,0,0,0.06234567901234567,6.234567901234566,0)" xlink:href="#bc"/></g><g id="N"><use transform="matrix(0.06234567901234567,0,0,0.06234567901234567,0,0)" xlink:href="#aY"/><use transform="matrix(0.06234567901234567,0,0,0.06234567901234567,6.234567901234566,0)" xlink:href="#ba"/><use transform="matrix(0.06234567901234567,0,0,0.06234567901234567,12.469135802469133,0)" xlink:href="#bf"/><use transform="matrix(0.06234567901234567,0,0,0.06234567901234567,24.938271604938265,0)" xlink:href="#aU"/><use transform="matrix(0.06234567901234567,0,0,0.06234567901234567,32.3574074074074,0)" xlink:href="#bb"/></g><g id="O"><use transform="matrix(0.06234567901234567,0,0,0.06234567901234567,0,0)" xlink:href="#aX"/><use transform="matrix(0.06234567901234567,0,0,0.06234567901234567,13.653703703703702,0)" xlink:href="#bb"/><use transform="matrix(0.06234567901234567,0,0,0.06234567901234567,26.122839506172834,0)" xlink:href="#bf"/></g><g id="P"><use transform="matrix(0.06234567901234567,0,0,0.06234567901234567,0,0)" xlink:href="#be"/><use transform="matrix(0.06234567901234567,0,0,0.06234567901234567,12.469135802469133,0)" xlink:href="#ba"/><use transform="matrix(0.06234567901234567,0,0,0.06234567901234567,18.7037037037037,0)" xlink:href="#aU"/><use transform="matrix(0.06234567901234567,0,0,0.06234567901234567,26.122839506172834,0)" xlink:href="#aT"/><use transform="matrix(0.06234567901234567,0,0,0.06234567901234567,38.59197530864196,0)" xlink:href="#bf"/></g><g id="Q"><use transform="matrix(0.06234567901234567,0,0,0.06234567901234567,0,0)" xlink:href="#bg"/><use transform="matrix(0.06234567901234567,0,0,0.06234567901234567,13.653703703703702,0)" xlink:href="#bd"/><use transform="matrix(0.06234567901234567,0,0,0.06234567901234567,22.382098765432097,0)" xlink:href="#bb"/><use transform="matrix(0.06234567901234567,0,0,0.06234567901234567,34.85123456790123,0)" xlink:href="#bh"/><use transform="matrix(0.06234567901234567,0,0,0.06234567901234567,47.32037037037036,0)" xlink:href="#bb"/><use transform="matrix(0.06234567901234567,0,0,0.06234567901234567,59.789506172839495,0)" xlink:href="#aU"/><use transform="matrix(0.06234567901234567,0,0,0.06234567901234567,67.20864197530862,0)" xlink:href="#bf"/></g><g id="R"><use transform="matrix(0.06234567901234567,0,0,0.06234567901234567,0,0)" xlink:href="#aX"/><use transform="matrix(0.06234567901234567,0,0,0.06234567901234567,13.653703703703702,0)" xlink:href="#bb"/></g><g id="S"><use transform="matrix(0.06234567901234567,0,0,0.06234567901234567,0,0)" xlink:href="#aY"/><use transform="matrix(0.06234567901234567,0,0,0.06234567901234567,6.234567901234566,0)" xlink:href="#bc"/></g><g id="T"><use transform="matrix(0.06234567901234567,0,0,0.06234567901234567,0,0)" xlink:href="#bg"/><use transform="matrix(0.06234567901234567,0,0,0.06234567901234567,13.653703703703702,0)" xlink:href="#bc"/><use transform="matrix(0.06234567901234567,0,0,0.06234567901234567,26.122839506172834,0)" xlink:href="#bf"/><use transform="matrix(0.06234567901234567,0,0,0.06234567901234567,38.59197530864196,0)" xlink:href="#bb"/></g><g id="U"><use transform="matrix(0.06234567901234567,0,0,0.06234567901234567,0,0)" xlink:href="#bi"/><use transform="matrix(0.06234567901234567,0,0,0.06234567901234567,13.279629629629627,0)" xlink:href="#bj"/><use transform="matrix(0.06234567901234567,0,0,0.06234567901234567,27.743827160493822,0)" xlink:href="#bk"/><use transform="matrix(0.06234567901234567,0,0,0.06234567901234567,41.39753086419752,0)" xlink:href="#bl"/><use transform="matrix(0.06234567901234567,0,0,0.06234567901234567,56.36049382716048,0)" xlink:href="#bk"/><use transform="matrix(0.06234567901234567,0,0,0.06234567901234567,68.33086419753086,0)" xlink:href="#bj"/><use transform="matrix(0.06234567901234567,0,0,0.06234567901234567,82.79506172839504,0)" xlink:href="#bk"/></g><path fill="#333" d="M220-157c-53 9-28 100-34 157h-49v-107c1-27-5-49-29-50C55-147 81-57 75 0H25l-1-190h47c2 12-1 28 3 38 10-53 101-56 108 0 13-22 24-43 59-42 82 1 51 116 57 194h-49v-107c-1-25-5-48-29-50" id="bB"/><g id="V"><use transform="matrix(0.06234567901234567,0,0,0.06234567901234567,0,0)" xlink:href="#bm"/><use transform="matrix(0.06234567901234567,0,0,0.06234567901234567,13.653703703703702,0)" xlink:href="#bo"/><use transform="matrix(0.06234567901234567,0,0,0.06234567901234567,27.307407407407403,0)" xlink:href="#bB"/><use transform="matrix(0.06234567901234567,0,0,0.06234567901234567,47.25802469135802,0)" xlink:href="#aT"/><use transform="matrix(0.06234567901234567,0,0,0.06234567901234567,59.72716049382715,0)" xlink:href="#bd"/><use transform="matrix(0.06234567901234567,0,0,0.06234567901234567,68.45555555555555,0)" xlink:href="#aW"/><use transform="matrix(0.06234567901234567,0,0,0.06234567901234567,82.10925925925925,0)" xlink:href="#bf"/></g><g id="W"><use transform="matrix(0.06234567901234567,0,0,0.06234567901234567,0,0)" xlink:href="#aX"/><use transform="matrix(0.06234567901234567,0,0,0.06234567901234567,13.653703703703702,0)" xlink:href="#bb"/><use transform="matrix(0.06234567901234567,0,0,0.06234567901234567,26.122839506172834,0)" xlink:href="#bB"/><use transform="matrix(0.06234567901234567,0,0,0.06234567901234567,46.073456790123444,0)" xlink:href="#bc"/><use transform="matrix(0.06234567901234567,0,0,0.06234567901234567,58.54259259259258,0)" xlink:href="#bm"/><use transform="matrix(0.06234567901234567,0,0,0.06234567901234567,72.19629629629628,0)" xlink:href="#aX"/><use transform="matrix(0.06234567901234567,0,0,0.06234567901234567,85.84999999999998,0)" xlink:href="#bb"/></g><g id="X"><use transform="matrix(0.06234567901234567,0,0,0.06234567901234567,0,0)" xlink:href="#bi"/><use transform="matrix(0.06234567901234567,0,0,0.06234567901234567,13.279629629629627,0)" xlink:href="#bj"/><use transform="matrix(0.06234567901234567,0,0,0.06234567901234567,27.743827160493822,0)" xlink:href="#bk"/><use transform="matrix(0.06234567901234567,0,0,0.06234567901234567,41.39753086419752,0)" xlink:href="#bl"/><use transform="matrix(0.06234567901234567,0,0,0.06234567901234567,56.36049382716048,0)" xlink:href="#bk"/><use transform="matrix(0.06234567901234567,0,0,0.06234567901234567,68.33086419753086,0)" xlink:href="#bj"/><use transform="matrix(0.06234567901234567,0,0,0.06234567901234567,82.79506172839504,0)" xlink:href="#bk"/></g><g id="Y"><use transform="matrix(0.06234567901234567,0,0,0.06234567901234567,0,0)" xlink:href="#be"/><use transform="matrix(0.06234567901234567,0,0,0.06234567901234567,12.469135802469133,0)" xlink:href="#ba"/><use transform="matrix(0.06234567901234567,0,0,0.06234567901234567,18.7037037037037,0)" xlink:href="#aU"/><use transform="matrix(0.06234567901234567,0,0,0.06234567901234567,26.122839506172834,0)" xlink:href="#bc"/><use transform="matrix(0.06234567901234567,0,0,0.06234567901234567,38.59197530864196,0)" xlink:href="#bm"/><use transform="matrix(0.06234567901234567,0,0,0.06234567901234567,52.24567901234566,0)" xlink:href="#aU"/></g><g id="Z"><use transform="matrix(0.06234567901234567,0,0,0.06234567901234567,0,0)" xlink:href="#aY"/><use transform="matrix(0.06234567901234567,0,0,0.06234567901234567,6.234567901234566,0)" xlink:href="#bb"/><use transform="matrix(0.06234567901234567,0,0,0.06234567901234567,18.7037037037037,0)" xlink:href="#bf"/></g><g id="aa"><use transform="matrix(0.06234567901234567,0,0,0.06234567901234567,0,0)" xlink:href="#by"/><use transform="matrix(0.06234567901234567,0,0,0.06234567901234567,16.147530864197527,0)" xlink:href="#bz"/><use transform="matrix(0.06234567901234567,0,0,0.06234567901234567,33.60432098765432,0)" xlink:href="#bs"/></g><g id="ab"><use transform="matrix(0.06234567901234567,0,0,0.06234567901234567,0,0)" xlink:href="#ba"/><use transform="matrix(0.06234567901234567,0,0,0.06234567901234567,6.234567901234566,0)" xlink:href="#aX"/><use transform="matrix(0.06234567901234567,0,0,0.06234567901234567,19.888271604938268,0)" xlink:href="#bb"/><use transform="matrix(0.06234567901234567,0,0,0.06234567901234567,32.3574074074074,0)" xlink:href="#bm"/><use transform="matrix(0.06234567901234567,0,0,0.06234567901234567,46.011111111111106,0)" xlink:href="#aU"/><use transform="matrix(0.06234567901234567,0,0,0.06234567901234567,53.43024691358024,0)" xlink:href="#ba"/><use transform="matrix(0.06234567901234567,0,0,0.06234567901234567,59.664814814814804,0)" xlink:href="#bp"/><use transform="matrix(0.06234567901234567,0,0,0.06234567901234567,67.08395061728393,0)" xlink:href="#ba"/><use transform="matrix(0.06234567901234567,0,0,0.06234567901234567,73.3185185185185,0)" xlink:href="#aT"/><use transform="matrix(0.06234567901234567,0,0,0.06234567901234567,85.78765432098763,0)" xlink:href="#bf"/></g><g id="ac"><use transform="matrix(0.06234567901234567,0,0,0.06234567901234567,0,0)" xlink:href="#bl"/><use transform="matrix(0.06234567901234567,0,0,0.06234567901234567,14.96296296296296,0)" xlink:href="#aT"/><use transform="matrix(0.06234567901234567,0,0,0.06234567901234567,27.432098765432094,0)" xlink:href="#aY"/><use transform="matrix(0.06234567901234567,0,0,0.06234567901234567,33.66666666666666,0)" xlink:href="#bb"/><use transform="matrix(0.06234567901234567,0,0,0.06234567901234567,46.13580246913579,0)" xlink:href="#be"/><use transform="matrix(0.06234567901234567,0,0,0.06234567901234567,58.60493827160492,0)" xlink:href="#aU"/><use transform="matrix(0.06234567901234567,0,0,0.06234567901234567,66.02407407407405,0)" xlink:href="#ba"/><use transform="matrix(0.06234567901234567,0,0,0.06234567901234567,72.25864197530862,0)" xlink:href="#aW"/><use transform="matrix(0.06234567901234567,0,0,0.06234567901234567,85.91234567901232,0)" xlink:href="#bm"/><use transform="matrix(0.06234567901234567,0,0,0.06234567901234567,99.56604938271602,0)" xlink:href="#bm"/><use transform="matrix(0.06234567901234567,0,0,0.06234567901234567,113.21975308641971,0)" xlink:href="#bb"/></g><g id="ad"><use transform="matrix(0.06234567901234567,0,0,0.06234567901234567,0,0)" xlink:href="#aY"/><use transform="matrix(0.06234567901234567,0,0,0.06234567901234567,6.234567901234566,0)" xlink:href="#bb"/><use transform="matrix(0.06234567901234567,0,0,0.06234567901234567,18.7037037037037,0)" xlink:href="#bf"/></g><g id="ae"><use transform="matrix(0.06234567901234567,0,0,0.06234567901234567,0,0)" xlink:href="#aX"/><use transform="matrix(0.06234567901234567,0,0,0.06234567901234567,13.653703703703702,0)" xlink:href="#bb"/><use transform="matrix(0.06234567901234567,0,0,0.06234567901234567,26.122839506172834,0)" xlink:href="#bB"/><use transform="matrix(0.06234567901234567,0,0,0.06234567901234567,46.073456790123444,0)" xlink:href="#bc"/><use transform="matrix(0.06234567901234567,0,0,0.06234567901234567,58.54259259259258,0)" xlink:href="#bm"/><use transform="matrix(0.06234567901234567,0,0,0.06234567901234567,72.19629629629628,0)" xlink:href="#aX"/><use transform="matrix(0.06234567901234567,0,0,0.06234567901234567,85.84999999999998,0)" xlink:href="#bb"/><use transform="matrix(0.06234567901234567,0,0,0.06234567901234567,98.3191358024691,0)" xlink:href="#bf"/></g><g id="af"><use transform="matrix(0.06234567901234567,0,0,0.06234567901234567,0,0)" xlink:href="#aX"/><use transform="matrix(0.06234567901234567,0,0,0.06234567901234567,13.653703703703702,0)" xlink:href="#bb"/><use transform="matrix(0.06234567901234567,0,0,0.06234567901234567,26.122839506172834,0)" xlink:href="#bn"/><use transform="matrix(0.06234567901234567,0,0,0.06234567901234567,39.776543209876536,0)" xlink:href="#bo"/><use transform="matrix(0.06234567901234567,0,0,0.06234567901234567,53.430246913580234,0)" xlink:href="#ba"/><use transform="matrix(0.06234567901234567,0,0,0.06234567901234567,59.664814814814804,0)" xlink:href="#bf"/></g><path fill="#333" d="M182-182c0 78-84 86-111 141h115V0H12c-6-101 99-100 120-180 1-22-12-31-33-32-23 0-32 14-35 34l-49-3c5-45 32-70 84-70 51 0 83 22 83 69" id="bC"/><path fill="#333" d="M101-251c68 0 84 54 84 127C185-50 166 4 99 4S15-52 14-124c-1-75 17-127 87-127zm-1 216c37-5 36-46 36-89s4-89-36-89c-39 0-36 45-36 89 0 43-3 85 36 89" id="bD"/><path fill="#333" d="M23 0v-37h61v-169l-59 37v-38l62-41h46v211h57V0H23" id="bE"/><g id="ag"><use transform="matrix(0.06234567901234567,0,0,0.06234567901234567,0,0)" xlink:href="#bC"/><use transform="matrix(0.06234567901234567,0,0,0.06234567901234567,12.469135802469133,0)" xlink:href="#bD"/><use transform="matrix(0.06234567901234567,0,0,0.06234567901234567,24.938271604938265,0)" xlink:href="#bE"/><use transform="matrix(0.06234567901234567,0,0,0.06234567901234567,37.4074074074074,0)" xlink:href="#bD"/></g><path fill="#333" d="M85 4C-2 5 27-109 22-190h50c7 57-23 150 33 157 60-5 35-97 40-157h50l1 190h-47c-2-12 1-28-3-38-12 25-28 42-61 42zm24-212l-59-48v-8h45l44 51v5h-30" id="bF"/><g id="ah"><use transform="matrix(0.06234567901234567,0,0,0.06234567901234567,0,0)" xlink:href="#aW"/><use transform="matrix(0.06234567901234567,0,0,0.06234567901234567,13.653703703703702,0)" xlink:href="#bF"/></g><g id="ai"><use transform="matrix(0.06234567901234567,0,0,0.06234567901234567,0,0)" xlink:href="#bc"/><use transform="matrix(0.06234567901234567,0,0,0.06234567901234567,12.469135802469133,0)" xlink:href="#bo"/></g><g id="aj"><use transform="matrix(0.06234567901234567,0,0,0.06234567901234567,0,0)" xlink:href="#bB"/><use transform="matrix(0.06234567901234567,0,0,0.06234567901234567,19.950617283950614,0)" xlink:href="#aW"/><use transform="matrix(0.06234567901234567,0,0,0.06234567901234567,33.60432098765432,0)" xlink:href="#ba"/><use transform="matrix(0.06234567901234567,0,0,0.06234567901234567,39.83888888888889,0)" xlink:href="#bm"/><use transform="matrix(0.06234567901234567,0,0,0.06234567901234567,53.49259259259259,0)" xlink:href="#bf"/></g><g id="ak"><use transform="matrix(0.06234567901234567,0,0,0.06234567901234567,0,0)" xlink:href="#bo"/><use transform="matrix(0.06234567901234567,0,0,0.06234567901234567,13.653703703703702,0)" xlink:href="#bm"/><use transform="matrix(0.06234567901234567,0,0,0.06234567901234567,27.307407407407403,0)" xlink:href="#bb"/></g><g id="al"><use transform="matrix(0.06234567901234567,0,0,0.06234567901234567,0,0)" xlink:href="#bn"/><use transform="matrix(0.06234567901234567,0,0,0.06234567901234567,13.653703703703702,0)" xlink:href="#bb"/><use transform="matrix(0.06234567901234567,0,0,0.06234567901234567,26.122839506172834,0)" xlink:href="#bd"/><use transform="matrix(0.06234567901234567,0,0,0.06234567901234567,34.85123456790123,0)" xlink:href="#bf"/><use transform="matrix(0.06234567901234567,0,0,0.06234567901234567,47.32037037037036,0)" xlink:href="#aW"/><use transform="matrix(0.06234567901234567,0,0,0.06234567901234567,60.97407407407407,0)" xlink:href="#bm"/><use transform="matrix(0.06234567901234567,0,0,0.06234567901234567,74.62777777777777,0)" xlink:href="#bm"/><use transform="matrix(0.06234567901234567,0,0,0.06234567901234567,88.28148148148146,0)" xlink:href="#bb"/></g><g id="am"><use transform="matrix(0.06234567901234567,0,0,0.06234567901234567,0,0)" xlink:href="#bb"/><use transform="matrix(0.06234567901234567,0,0,0.06234567901234567,12.469135802469133,0)" xlink:href="#bf"/><use transform="matrix(0.06234567901234567,0,0,0.06234567901234567,24.938271604938265,0)" xlink:href="#aU"/></g><g id="an"><use transform="matrix(0.06234567901234567,0,0,0.06234567901234567,0,0)" xlink:href="#aY"/><use transform="matrix(0.06234567901234567,0,0,0.06234567901234567,6.234567901234566,0)" xlink:href="#aW"/><use transform="matrix(0.06234567901234567,0,0,0.06234567901234567,19.888271604938268,0)" xlink:href="#be"/><use transform="matrix(0.06234567901234567,0,0,0.06234567901234567,32.3574074074074,0)" xlink:href="#bc"/><use transform="matrix(0.06234567901234567,0,0,0.06234567901234567,44.82654320987653,0)" xlink:href="#aY"/><use transform="matrix(0.06234567901234567,0,0,0.06234567901234567,51.0611111111111,0)" xlink:href="#ba"/><use transform="matrix(0.06234567901234567,0,0,0.06234567901234567,57.29567901234567,0)" xlink:href="#bf"/><use transform="matrix(0.06234567901234567,0,0,0.06234567901234567,69.7648148148148,0)" xlink:href="#aT"/><use transform="matrix(0.06234567901234567,0,0,0.06234567901234567,82.23395061728394,0)" xlink:href="#bb"/></g><g id="ao"><use transform="matrix(0.06234567901234567,0,0,0.06234567901234567,0,0)" xlink:href="#bb"/><use transform="matrix(0.06234567901234567,0,0,0.06234567901234567,12.469135802469133,0)" xlink:href="#bm"/></g><path fill="#333" d="M76-208v77h127v40H76V0H24v-248h183v40H76" id="bG"/><g id="ap"><use transform="matrix(0.06234567901234567,0,0,0.06234567901234567,0,0)" xlink:href="#bG"/><use transform="matrix(0.06234567901234567,0,0,0.06234567901234567,13.653703703703702,0)" xlink:href="#bd"/><use transform="matrix(0.06234567901234567,0,0,0.06234567901234567,22.382098765432097,0)" xlink:href="#bc"/><use transform="matrix(0.06234567901234567,0,0,0.06234567901234567,34.85123456790123,0)" xlink:href="#bm"/><use transform="matrix(0.06234567901234567,0,0,0.06234567901234567,48.50493827160493,0)" xlink:href="#be"/><use transform="matrix(0.06234567901234567,0,0,0.06234567901234567,60.97407407407406,0)" xlink:href="#bb"/></g><path fill="#333" d="M185-48c-13 30-37 53-82 52C43 2 14-33 14-96s30-98 90-98c62 0 83 45 84 108H66c0 31 8 55 39 56 18 0 30-7 34-22zm-45-69c5-46-57-63-70-21-2 6-4 13-4 21h74zm-30-91l-59-48v-8h45l44 51v5h-30" id="bH"/><g id="aq"><use transform="matrix(0.06234567901234567,0,0,0.06234567901234567,0,0)" xlink:href="#bj"/><use transform="matrix(0.06234567901234567,0,0,0.06234567901234567,16.147530864197527,0)" xlink:href="#aZ"/><use transform="matrix(0.06234567901234567,0,0,0.06234567901234567,29.80123456790123,0)" xlink:href="#bd"/><use transform="matrix(0.06234567901234567,0,0,0.06234567901234567,38.529629629629625,0)" xlink:href="#bH"/><use transform="matrix(0.06234567901234567,0,0,0.06234567901234567,50.99876543209876,0)" xlink:href="#aZ"/><use transform="matrix(0.06234567901234567,0,0,0.06234567901234567,64.65246913580246,0)" xlink:href="#bb"/></g><g id="ar"><use transform="matrix(0.06234567901234567,0,0,0.06234567901234567,0,0)" xlink:href="#aX"/><use transform="matrix(0.06234567901234567,0,0,0.06234567901234567,13.653703703703702,0)" xlink:href="#ba"/><use transform="matrix(0.06234567901234567,0,0,0.06234567901234567,19.888271604938268,0)" xlink:href="#bp"/><use transform="matrix(0.06234567901234567,0,0,0.06234567901234567,27.307407407407403,0)" xlink:href="#bp"/><use transform="matrix(0.06234567901234567,0,0,0.06234567901234567,34.72654320987654,0)" xlink:href="#aT"/><use transform="matrix(0.06234567901234567,0,0,0.06234567901234567,47.19567901234567,0)" xlink:href="#bd"/><use transform="matrix(0.06234567901234567,0,0,0.06234567901234567,55.92407407407406,0)" xlink:href="#bb"/><use transform="matrix(0.06234567901234567,0,0,0.06234567901234567,68.3932098765432,0)" xlink:href="#bm"/><use transform="matrix(0.06234567901234567,0,0,0.06234567901234567,82.0469135802469,0)" xlink:href="#aU"/><use transform="matrix(0.06234567901234567,0,0,0.06234567901234567,89.46604938271602,0)" xlink:href="#bb"/><use transform="matrix(0.06234567901234567,0,0,0.06234567901234567,101.93518518518516,0)" xlink:href="#bf"/></g><g id="as"><use transform="matrix(0.06234567901234567,0,0,0.06234567901234567,0,0)" xlink:href="#ba"/><use transform="matrix(0.06234567901234567,0,0,0.06234567901234567,6.234567901234566,0)" xlink:href="#bm"/><use transform="matrix(0.06234567901234567,0,0,0.06234567901234567,19.888271604938268,0)" xlink:href="#bp"/><use transform="matrix(0.06234567901234567,0,0,0.06234567901234567,27.307407407407403,0)" xlink:href="#aW"/><use transform="matrix(0.06234567901234567,0,0,0.06234567901234567,40.96111111111111,0)" xlink:href="#bd"/><use transform="matrix(0.06234567901234567,0,0,0.06234567901234567,49.6895061728395,0)" xlink:href="#bB"/><use transform="matrix(0.06234567901234567,0,0,0.06234567901234567,69.64012345679012,0)" xlink:href="#bc"/><use transform="matrix(0.06234567901234567,0,0,0.06234567901234567,82.10925925925926,0)" xlink:href="#aU"/><use transform="matrix(0.06234567901234567,0,0,0.06234567901234567,89.52839506172839,0)" xlink:href="#ba"/><use transform="matrix(0.06234567901234567,0,0,0.06234567901234567,95.76296296296296,0)" xlink:href="#aW"/><use transform="matrix(0.06234567901234567,0,0,0.06234567901234567,109.41666666666666,0)" xlink:href="#bm"/><use transform="matrix(0.06234567901234567,0,0,0.06234567901234567,123.07037037037036,0)" xlink:href="#bf"/></g><g id="at"><use transform="matrix(0.06234567901234567,0,0,0.06234567901234567,0,0)" xlink:href="#bf"/><use transform="matrix(0.06234567901234567,0,0,0.06234567901234567,12.469135802469133,0)" xlink:href="#bo"/><use transform="matrix(0.06234567901234567,0,0,0.06234567901234567,26.122839506172834,0)" xlink:href="#bd"/></g><g id="au"><use transform="matrix(0.06234567901234567,0,0,0.06234567901234567,0,0)" xlink:href="#bg"/><use transform="matrix(0.06234567901234567,0,0,0.06234567901234567,13.653703703703702,0)" xlink:href="#bd"/><use transform="matrix(0.06234567901234567,0,0,0.06234567901234567,22.382098765432097,0)" xlink:href="#bb"/><use transform="matrix(0.06234567901234567,0,0,0.06234567901234567,34.85123456790123,0)" xlink:href="#bh"/><use transform="matrix(0.06234567901234567,0,0,0.06234567901234567,47.32037037037036,0)" xlink:href="#bb"/><use transform="matrix(0.06234567901234567,0,0,0.06234567901234567,59.789506172839495,0)" xlink:href="#aU"/><use transform="matrix(0.06234567901234567,0,0,0.06234567901234567,67.20864197530862,0)" xlink:href="#bf"/></g><path fill="#333" d="M144 0l-44-69L55 0H2l70-98-66-92h53l41 62 40-62h54l-67 91 71 99h-54" id="bI"/><g id="av"><use transform="matrix(0.06234567901234567,0,0,0.06234567901234567,0,0)" xlink:href="#bb"/><use transform="matrix(0.06234567901234567,0,0,0.06234567901234567,12.469135802469133,0)" xlink:href="#bI"/><use transform="matrix(0.06234567901234567,0,0,0.06234567901234567,24.938271604938265,0)" xlink:href="#aU"/><use transform="matrix(0.06234567901234567,0,0,0.06234567901234567,32.3574074074074,0)" xlink:href="#bd"/><use transform="matrix(0.06234567901234567,0,0,0.06234567901234567,41.08580246913579,0)" xlink:href="#bc"/><use transform="matrix(0.06234567901234567,0,0,0.06234567901234567,53.554938271604925,0)" xlink:href="#ba"/><use transform="matrix(0.06234567901234567,0,0,0.06234567901234567,59.789506172839495,0)" xlink:href="#aU"/></g><g id="aw"><use transform="matrix(0.06234567901234567,0,0,0.06234567901234567,0,0)" xlink:href="#be"/><use transform="matrix(0.06234567901234567,0,0,0.06234567901234567,12.469135802469133,0)" xlink:href="#bb"/><use transform="matrix(0.06234567901234567,0,0,0.06234567901234567,24.938271604938265,0)" xlink:href="#aY"/><use transform="matrix(0.06234567901234567,0,0,0.06234567901234567,31.17283950617283,0)" xlink:href="#aY"/><use transform="matrix(0.06234567901234567,0,0,0.06234567901234567,37.4074074074074,0)" xlink:href="#bb"/><use transform="matrix(0.06234567901234567,0,0,0.06234567901234567,49.87654320987653,0)" xlink:href="#bf"/></g><g id="ax"><use transform="matrix(0.06234567901234567,0,0,0.06234567901234567,0,0)" xlink:href="#bp"/><use transform="matrix(0.06234567901234567,0,0,0.06234567901234567,7.4191358024691345,0)" xlink:href="#bc"/><use transform="matrix(0.06234567901234567,0,0,0.06234567901234567,19.888271604938268,0)" xlink:href="#bB"/><use transform="matrix(0.06234567901234567,0,0,0.06234567901234567,39.83888888888888,0)" xlink:href="#ba"/><use transform="matrix(0.06234567901234567,0,0,0.06234567901234567,46.073456790123444,0)" xlink:href="#aY"/><use transform="matrix(0.06234567901234567,0,0,0.06234567901234567,52.308024691358014,0)" xlink:href="#aY"/><use transform="matrix(0.06234567901234567,0,0,0.06234567901234567,58.542592592592584,0)" xlink:href="#bb"/><use transform="matrix(0.06234567901234567,0,0,0.06234567901234567,71.01172839506171,0)" xlink:href="#bf"/></g><g id="ay"><use transform="matrix(0.06234567901234567,0,0,0.06234567901234567,0,0)" xlink:href="#bg"/><use transform="matrix(0.06234567901234567,0,0,0.06234567901234567,13.653703703703702,0)" xlink:href="#bd"/><use transform="matrix(0.06234567901234567,0,0,0.06234567901234567,22.382098765432097,0)" xlink:href="#bb"/><use transform="matrix(0.06234567901234567,0,0,0.06234567901234567,34.85123456790123,0)" xlink:href="#bh"/><use transform="matrix(0.06234567901234567,0,0,0.06234567901234567,47.32037037037036,0)" xlink:href="#bb"/><use transform="matrix(0.06234567901234567,0,0,0.06234567901234567,59.789506172839495,0)" xlink:href="#aU"/><use transform="matrix(0.06234567901234567,0,0,0.06234567901234567,67.20864197530862,0)" xlink:href="#bf"/></g><g id="az"><use transform="matrix(0.06234567901234567,0,0,0.06234567901234567,0,0)" xlink:href="#bt"/><use transform="matrix(0.06234567901234567,0,0,0.06234567901234567,14.96296296296296,0)" xlink:href="#bI"/><use transform="matrix(0.06234567901234567,0,0,0.06234567901234567,27.432098765432094,0)" xlink:href="#aU"/><use transform="matrix(0.06234567901234567,0,0,0.06234567901234567,34.85123456790123,0)" xlink:href="#bd"/><use transform="matrix(0.06234567901234567,0,0,0.06234567901234567,43.57962962962962,0)" xlink:href="#bc"/><use transform="matrix(0.06234567901234567,0,0,0.06234567901234567,56.048765432098755,0)" xlink:href="#ba"/><use transform="matrix(0.06234567901234567,0,0,0.06234567901234567,62.28333333333332,0)" xlink:href="#aU"/></g><g id="aA"><use transform="matrix(0.06234567901234567,0,0,0.06234567901234567,0,0)" xlink:href="#bf"/><use transform="matrix(0.06234567901234567,0,0,0.06234567901234567,12.469135802469133,0)" xlink:href="#bo"/><use transform="matrix(0.06234567901234567,0,0,0.06234567901234567,26.122839506172834,0)" xlink:href="#bd"/></g><g id="aB"><use transform="matrix(0.06234567901234567,0,0,0.06234567901234567,0,0)" xlink:href="#aX"/><use transform="matrix(0.06234567901234567,0,0,0.06234567901234567,13.653703703703702,0)" xlink:href="#aT"/><use transform="matrix(0.06234567901234567,0,0,0.06234567901234567,26.122839506172834,0)" xlink:href="#bn"/><use transform="matrix(0.06234567901234567,0,0,0.06234567901234567,39.776543209876536,0)" xlink:href="#aW"/><use transform="matrix(0.06234567901234567,0,0,0.06234567901234567,53.430246913580234,0)" xlink:href="#bf"/><use transform="matrix(0.06234567901234567,0,0,0.06234567901234567,65.89938271604936,0)" xlink:href="#bc"/><use transform="matrix(0.06234567901234567,0,0,0.06234567901234567,78.3685185185185,0)" xlink:href="#bm"/><use transform="matrix(0.06234567901234567,0,0,0.06234567901234567,92.0222222222222,0)" xlink:href="#aU"/><use transform="matrix(0.06234567901234567,0,0,0.06234567901234567,99.44135802469133,0)" xlink:href="#bf"/></g><g id="aC"><use transform="matrix(0.06234567901234567,0,0,0.06234567901234567,0,0)" xlink:href="#ba"/><use transform="matrix(0.06234567901234567,0,0,0.06234567901234567,6.234567901234566,0)" xlink:href="#bm"/><use transform="matrix(0.06234567901234567,0,0,0.06234567901234567,19.888271604938268,0)" xlink:href="#bh"/><use transform="matrix(0.06234567901234567,0,0,0.06234567901234567,32.3574074074074,0)" xlink:href="#bb"/><use transform="matrix(0.06234567901234567,0,0,0.06234567901234567,44.82654320987653,0)" xlink:href="#bm"/><use transform="matrix(0.06234567901234567,0,0,0.06234567901234567,58.48024691358023,0)" xlink:href="#aU"/><use transform="matrix(0.06234567901234567,0,0,0.06234567901234567,65.89938271604936,0)" xlink:href="#bb"/><use transform="matrix(0.06234567901234567,0,0,0.06234567901234567,78.3685185185185,0)" xlink:href="#bo"/><use transform="matrix(0.06234567901234567,0,0,0.06234567901234567,92.0222222222222,0)" xlink:href="#bd"/><use transform="matrix(0.06234567901234567,0,0,0.06234567901234567,100.75061728395059,0)" xlink:href="#bf"/></g><g id="aD"><use transform="matrix(0.06234567901234567,0,0,0.06234567901234567,0,0)" xlink:href="#bn"/><use transform="matrix(0.06234567901234567,0,0,0.06234567901234567,13.653703703703702,0)" xlink:href="#bb"/><use transform="matrix(0.06234567901234567,0,0,0.06234567901234567,26.122839506172834,0)" xlink:href="#bd"/><use transform="matrix(0.06234567901234567,0,0,0.06234567901234567,34.85123456790123,0)" xlink:href="#bf"/><use transform="matrix(0.06234567901234567,0,0,0.06234567901234567,47.32037037037036,0)" xlink:href="#aW"/><use transform="matrix(0.06234567901234567,0,0,0.06234567901234567,60.97407407407407,0)" xlink:href="#bm"/><use transform="matrix(0.06234567901234567,0,0,0.06234567901234567,74.62777777777777,0)" xlink:href="#bm"/><use transform="matrix(0.06234567901234567,0,0,0.06234567901234567,88.28148148148146,0)" xlink:href="#bb"/><use transform="matrix(0.06234567901234567,0,0,0.06234567901234567,100.75061728395059,0)" xlink:href="#bf"/></g><g id="aE"><use transform="matrix(0.06234567901234567,0,0,0.06234567901234567,0,0)" xlink:href="#bn"/><use transform="matrix(0.06234567901234567,0,0,0.06234567901234567,13.653703703703702,0)" xlink:href="#bc"/><use transform="matrix(0.06234567901234567,0,0,0.06234567901234567,26.122839506172834,0)" xlink:href="#bd"/></g><g id="aF"><use transform="matrix(0.06234567901234567,0,0,0.06234567901234567,0,0)" xlink:href="#bp"/><use transform="matrix(0.06234567901234567,0,0,0.06234567901234567,7.4191358024691345,0)" xlink:href="#bc"/><use transform="matrix(0.06234567901234567,0,0,0.06234567901234567,19.888271604938268,0)" xlink:href="#bB"/><use transform="matrix(0.06234567901234567,0,0,0.06234567901234567,39.83888888888888,0)" xlink:href="#ba"/><use transform="matrix(0.06234567901234567,0,0,0.06234567901234567,46.073456790123444,0)" xlink:href="#aY"/><use transform="matrix(0.06234567901234567,0,0,0.06234567901234567,52.308024691358014,0)" xlink:href="#aY"/><use transform="matrix(0.06234567901234567,0,0,0.06234567901234567,58.542592592592584,0)" xlink:href="#bb"/></g><g id="aG"><use transform="matrix(0.06234567901234567,0,0,0.06234567901234567,0,0)" xlink:href="#bB"/><use transform="matrix(0.06234567901234567,0,0,0.06234567901234567,19.950617283950614,0)" xlink:href="#aW"/><use transform="matrix(0.06234567901234567,0,0,0.06234567901234567,33.60432098765432,0)" xlink:href="#ba"/><use transform="matrix(0.06234567901234567,0,0,0.06234567901234567,39.83888888888889,0)" xlink:href="#bm"/><use transform="matrix(0.06234567901234567,0,0,0.06234567901234567,53.49259259259259,0)" xlink:href="#bf"/></g><g id="aH"><use transform="matrix(0.06234567901234567,0,0,0.06234567901234567,0,0)" xlink:href="#bo"/><use transform="matrix(0.06234567901234567,0,0,0.06234567901234567,13.653703703703702,0)" xlink:href="#bm"/><use transform="matrix(0.06234567901234567,0,0,0.06234567901234567,27.307407407407403,0)" xlink:href="#bb"/></g><g id="aI"><use transform="matrix(0.06234567901234567,0,0,0.06234567901234567,0,0)" xlink:href="#bb"/><use transform="matrix(0.06234567901234567,0,0,0.06234567901234567,12.469135802469133,0)" xlink:href="#bf"/><use transform="matrix(0.06234567901234567,0,0,0.06234567901234567,24.938271604938265,0)" xlink:href="#aU"/></g><g id="aJ"><use transform="matrix(0.06234567901234567,0,0,0.06234567901234567,0,0)" xlink:href="#bb"/><use transform="matrix(0.06234567901234567,0,0,0.06234567901234567,12.469135802469133,0)" xlink:href="#bm"/></g><g id="aK"><use transform="matrix(0.06234567901234567,0,0,0.06234567901234567,0,0)" xlink:href="#bG"/><use transform="matrix(0.06234567901234567,0,0,0.06234567901234567,13.653703703703702,0)" xlink:href="#bd"/><use transform="matrix(0.06234567901234567,0,0,0.06234567901234567,22.382098765432097,0)" xlink:href="#bc"/><use transform="matrix(0.06234567901234567,0,0,0.06234567901234567,34.85123456790123,0)" xlink:href="#bm"/><use transform="matrix(0.06234567901234567,0,0,0.06234567901234567,48.50493827160493,0)" xlink:href="#be"/><use transform="matrix(0.06234567901234567,0,0,0.06234567901234567,60.97407407407406,0)" xlink:href="#bb"/></g><path fill="#333" d="M132-34C116-15 102 5 68 4 31 3 10-16 10-54c-1-60 55-63 116-61 1-26-3-47-28-47-18 1-26 9-28 27l-52-2c7-38 36-58 82-57s74 22 75 68l1 82c-1 14 12 18 25 15v27c-30 8-71 5-69-32zm-48 3c29 0 43-24 42-57-32 0-66-3-65 30 0 17 8 27 23 27zm18-177l-59-48v-8h45l44 51v5h-30" id="bJ"/><use transform="matrix(0.06234567901234567,0,0,0.06234567901234567,0,0)" xlink:href="#bJ" id="aL"/><g id="aM"><use transform="matrix(0.06234567901234567,0,0,0.06234567901234567,0,0)" xlink:href="#aY"/><use transform="matrix(0.06234567901234567,0,0,0.06234567901234567,6.234567901234566,0)" xlink:href="#bv"/><use transform="matrix(0.06234567901234567,0,0,0.06234567901234567,11.53395061728395,0)" xlink:href="#bc"/><use transform="matrix(0.06234567901234567,0,0,0.06234567901234567,24.00308641975308,0)" xlink:href="#ba"/><use transform="matrix(0.06234567901234567,0,0,0.06234567901234567,30.237654320987648,0)" xlink:href="#aX"/><use transform="matrix(0.06234567901234567,0,0,0.06234567901234567,43.89135802469135,0)" xlink:href="#bb"/></g><g id="aN"><use transform="matrix(0.06234567901234567,0,0,0.06234567901234567,0,0)" xlink:href="#bm"/><use transform="matrix(0.06234567901234567,0,0,0.06234567901234567,13.653703703703702,0)" xlink:href="#bo"/><use transform="matrix(0.06234567901234567,0,0,0.06234567901234567,27.307407407407403,0)" xlink:href="#bB"/><use transform="matrix(0.06234567901234567,0,0,0.06234567901234567,47.25802469135802,0)" xlink:href="#aT"/><use transform="matrix(0.06234567901234567,0,0,0.06234567901234567,59.72716049382715,0)" xlink:href="#bd"/><use transform="matrix(0.06234567901234567,0,0,0.06234567901234567,68.45555555555555,0)" xlink:href="#aW"/><use transform="matrix(0.06234567901234567,0,0,0.06234567901234567,82.10925925925925,0)" xlink:href="#bf"/></g><g id="aO"><use transform="matrix(0.06234567901234567,0,0,0.06234567901234567,0,0)" xlink:href="#aX"/><use transform="matrix(0.06234567901234567,0,0,0.06234567901234567,13.653703703703702,0)" xlink:href="#bb"/><use transform="matrix(0.06234567901234567,0,0,0.06234567901234567,26.122839506172834,0)" xlink:href="#bB"/><use transform="matrix(0.06234567901234567,0,0,0.06234567901234567,46.073456790123444,0)" xlink:href="#bc"/><use transform="matrix(0.06234567901234567,0,0,0.06234567901234567,58.54259259259258,0)" xlink:href="#bm"/><use transform="matrix(0.06234567901234567,0,0,0.06234567901234567,72.19629629629628,0)" xlink:href="#aX"/><use transform="matrix(0.06234567901234567,0,0,0.06234567901234567,85.84999999999998,0)" xlink:href="#bb"/></g><g id="aP"><use transform="matrix(0.06234567901234567,0,0,0.06234567901234567,0,0)" xlink:href="#bk"/><use transform="matrix(0.06234567901234567,0,0,0.06234567901234567,13.653703703703702,0)" xlink:href="#bt"/><use transform="matrix(0.06234567901234567,0,0,0.06234567901234567,28.61666666666666,0)" xlink:href="#by"/><use transform="matrix(0.06234567901234567,0,0,0.06234567901234567,44.76419753086419,0)" xlink:href="#bl"/></g><g id="aQ"><use transform="matrix(0.06234567901234567,0,0,0.06234567901234567,0,0)" xlink:href="#aX"/><use transform="matrix(0.06234567901234567,0,0,0.06234567901234567,13.653703703703702,0)" xlink:href="#aT"/><use transform="matrix(0.06234567901234567,0,0,0.06234567901234567,26.122839506172834,0)" xlink:href="#bn"/><use transform="matrix(0.06234567901234567,0,0,0.06234567901234567,39.776543209876536,0)" xlink:href="#aW"/><use transform="matrix(0.06234567901234567,0,0,0.06234567901234567,53.430246913580234,0)" xlink:href="#bf"/><use transform="matrix(0.06234567901234567,0,0,0.06234567901234567,65.89938271604936,0)" xlink:href="#bc"/><use transform="matrix(0.06234567901234567,0,0,0.06234567901234567,78.3685185185185,0)" xlink:href="#bm"/><use transform="matrix(0.06234567901234567,0,0,0.06234567901234567,92.0222222222222,0)" xlink:href="#aU"/><use transform="matrix(0.06234567901234567,0,0,0.06234567901234567,99.44135802469133,0)" xlink:href="#bf"/></g><g id="aR"><use transform="matrix(0.06234567901234567,0,0,0.06234567901234567,0,0)" xlink:href="#bp"/><use transform="matrix(0.06234567901234567,0,0,0.06234567901234567,7.4191358024691345,0)" xlink:href="#bd"/><use transform="matrix(0.06234567901234567,0,0,0.06234567901234567,16.147530864197527,0)" xlink:href="#bc"/><use transform="matrix(0.06234567901234567,0,0,0.06234567901234567,28.61666666666666,0)" xlink:href="#bm"/><use transform="matrix(0.06234567901234567,0,0,0.06234567901234567,42.27037037037036,0)" xlink:href="#bq"/><use transform="matrix(0.06234567901234567,0,0,0.06234567901234567,54.73950617283949,0)" xlink:href="#bc"/><use transform="matrix(0.06234567901234567,0,0,0.06234567901234567,67.20864197530862,0)" xlink:href="#ba"/><use transform="matrix(0.06234567901234567,0,0,0.06234567901234567,73.4432098765432,0)" xlink:href="#bf"/></g></defs></g></svg>